<svg width="500" height="500" viewBox="0 0 500 500" fill="none" xmlns="http://www.w3.org/2000/svg">
<mask id="mask0_5_191" style="mask-type:luminance" maskUnits="userSpaceOnUse" x="59" y="25" width="382" height="448">
<path d="M440.771 25H59V472.846H440.771V25Z" fill="white"/>
</mask>
<g mask="url(#mask0_5_191)">
<path d="M352.082 31.0692C360.697 34.6911 367.647 40.7603 374.206 47.6126C387.519 61.5129 397.797 77.3711 405.139 95.1871C408.173 102.627 410.523 109.577 411.991 116.038C413.166 121.226 413.851 126.512 413.949 131.798C414.047 140.706 409.446 153.627 398.091 151.767C393.49 150.984 389.77 147.362 387.617 143.153C385.757 139.629 384.19 135.42 382.918 130.623C381.449 125.141 379.981 119.562 378.023 114.178C372.639 98.9069 364.906 85.3002 355.019 73.2597C348.95 65.918 341.51 59.3594 332.994 53.7796C331.33 52.7028 330.057 51.8218 329.274 51.0387C328.099 50.0598 327.023 48.983 326.044 47.8083C322.128 43.3054 321.345 36.4531 325.359 31.9502C331.526 25 344.643 27.9367 352.18 31.0692H352.082Z" fill="#ED0000"/>
<path d="M78.8716 96.9491C81.4168 90.9778 84.2556 85.1044 87.1923 79.3289C90.6184 72.7703 94.6319 66.5053 99.2327 60.7298C102.463 56.6184 105.791 53.2902 109.217 50.5493C117.44 44.0885 128.795 38.8025 139.563 41.1518C145.143 42.3265 149.254 46.7316 149.059 52.5071C148.863 58.3805 144.654 63.275 140.738 66.9948C138.095 69.5399 135.354 72.085 132.613 74.5323C125.565 80.7972 119.496 87.9432 114.21 96.0681C111.763 99.7879 109.707 103.606 107.945 107.521C104.715 114.667 101.974 121.911 100.016 129.644C98.058 137.182 96.3939 144.719 95.415 152.257C94.8277 157.445 94.4361 161.752 92.9678 166.353C90.4226 174.38 82.2978 178.002 75.0539 172.814C72.9003 171.248 71.432 169.29 70.0615 166.94C68.1037 163.71 67.0269 160.284 66.8312 156.466C66.048 144.719 67.6143 132.581 70.7468 121.128C73.0961 112.709 75.5434 104.682 78.8716 96.9491Z" fill="#ED0000"/>
<path d="M114.014 138.454C118.126 123.379 125.076 108.304 135.452 96.3618C143.283 87.3559 152.093 79.8184 161.98 73.6513C168.245 69.7357 175 66.2117 182.341 63.0792C201.528 54.8564 222.183 49.4725 243.033 48.3957C256.738 47.7105 270.246 48.3957 283.657 50.745C290.118 51.8218 296.579 53.486 302.942 55.5417C314.786 59.3594 325.554 65.5264 335.05 73.5534C347.775 84.4192 357.271 97.5364 363.731 113.003C369.605 127.295 373.618 142.174 375.576 157.543C377.24 170.856 378.415 182.309 378.806 192.098C379.59 209.033 380.177 225.968 381.841 242.805C382.722 252.203 384.778 261.404 387.812 270.41C389.672 275.892 392.217 280.786 394.958 285.779C399.363 293.61 404.258 301.147 409.74 308.293C413.949 313.775 418.55 319.257 422.27 324.152C426.577 329.927 430.982 336.779 433.625 343.534C434.995 346.862 435.876 350.582 436.561 354.595C438.715 368.594 431.863 381.221 419.92 388.367C412.187 392.968 403.181 395.318 394.273 396.59C377.632 398.94 360.697 399.625 343.958 399.918C331.721 400.114 319.387 400.506 307.151 400.897C305.193 400.897 303.333 400.897 301.473 400.995C280.133 401.191 258.891 401.289 237.551 401.191C235.887 401.191 233.929 401.191 231.874 401.191C212.394 400.897 191.249 401.191 170.301 400.114C156.596 399.429 142.794 398.94 129.089 398.744C123.314 398.646 117.538 398.254 111.861 397.765C107.162 397.373 102.561 396.786 97.9602 395.905C87.486 393.947 77.8928 390.521 70.9426 382.2C62.2304 371.53 59 357.728 61.1536 344.513C63.503 330.417 69.7679 318.474 80.1442 308.783C82.5915 306.531 84.9408 304.28 87.2902 302.028C88.8564 300.56 90.4227 298.994 91.4016 297.036C92.9678 293.904 94.3383 290.771 95.513 287.541C96.0024 286.17 96.2961 284.8 96.4919 283.332C96.8834 279.612 97.275 275.892 97.6665 272.172C99.8201 248.189 102.072 224.304 104.225 200.321C104.91 192.49 105.791 184.561 106.672 176.729C108.141 163.514 110.588 150.789 113.916 138.454H114.014Z" fill="#ED0000"/>
<path d="M204.758 409.903C220.812 409.903 236.768 409.903 252.822 410.001C266.82 410.001 280.917 409.903 295.013 409.805C298.047 409.805 301.376 409.903 305.095 410.197C307.053 410.295 308.522 410.588 309.403 410.784C315.961 412.644 318.898 418.518 317.527 425.174C316.94 428.209 315.668 431.243 313.905 434.278C307.836 444.36 299.418 452.485 289.825 459.436C282.483 464.819 273.869 469.42 265.156 471.868C259.87 473.434 253.899 474.413 247.438 474.804C234.517 475.685 222.574 471.965 212.1 464.624C211.121 463.938 209.555 462.764 207.597 461.198C200.157 455.226 195.654 451.8 189.781 446.71C184.299 441.913 179.796 435.746 176.37 429.383C174.314 425.566 172.65 422.139 172.259 418.126C171.965 414.993 174.314 412.35 177.055 411.176C177.741 410.882 178.72 410.686 179.894 410.588C182.244 410.393 184.593 410.295 186.942 410.197C192.914 410.001 198.787 409.903 204.758 409.903Z" fill="#ED0000"/>
</g>
</svg>
