<svg width="500" height="500" viewBox="0 0 500 500" fill="none" xmlns="http://www.w3.org/2000/svg">
<rect x="25" y="160" width="450" height="196" rx="98" fill="#1E3443"/>
<path d="M109.897 231.102V283H98.2773V231.102H109.897ZM130.322 252.987V261.97H106.654V252.987H130.322ZM132.603 231.102V240.12H106.654V231.102H132.603ZM135.312 264.108V263.36C135.312 260.532 135.716 257.93 136.524 255.554C137.332 253.154 138.52 251.074 140.088 249.316C141.657 247.557 143.582 246.191 145.863 245.217C148.144 244.219 150.758 243.72 153.705 243.72C156.699 243.72 159.336 244.219 161.618 245.217C163.923 246.191 165.859 247.557 167.428 249.316C168.996 251.074 170.184 253.154 170.992 255.554C171.8 257.93 172.204 260.532 172.204 263.36V264.108C172.204 266.912 171.8 269.514 170.992 271.915C170.184 274.291 168.996 276.37 167.428 278.152C165.859 279.911 163.935 281.277 161.653 282.251C159.372 283.226 156.746 283.713 153.776 283.713C150.829 283.713 148.203 283.226 145.898 282.251C143.593 281.277 141.657 279.911 140.088 278.152C138.52 276.37 137.332 274.291 136.524 271.915C135.716 269.514 135.312 266.912 135.312 264.108ZM146.469 263.36V264.108C146.469 265.629 146.588 267.055 146.825 268.386C147.087 269.716 147.502 270.881 148.073 271.879C148.643 272.877 149.392 273.661 150.318 274.231C151.269 274.778 152.421 275.051 153.776 275.051C155.13 275.051 156.271 274.778 157.198 274.231C158.125 273.661 158.873 272.877 159.443 271.879C160.014 270.881 160.418 269.716 160.655 268.386C160.917 267.055 161.047 265.629 161.047 264.108V263.36C161.047 261.863 160.917 260.461 160.655 259.154C160.418 257.823 160.014 256.647 159.443 255.625C158.873 254.603 158.113 253.807 157.162 253.237C156.235 252.667 155.083 252.381 153.705 252.381C152.374 252.381 151.245 252.667 150.318 253.237C149.392 253.807 148.643 254.603 148.073 255.625C147.502 256.647 147.087 257.823 146.825 259.154C146.588 260.461 146.469 261.863 146.469 263.36ZM189.777 228.25V283H178.62V228.25H189.777ZM209.524 228.25V283H198.367V228.25H209.524ZM215.94 264.108V263.36C215.94 260.532 216.344 257.93 217.152 255.554C217.96 253.154 219.148 251.074 220.716 249.316C222.285 247.557 224.209 246.191 226.491 245.217C228.772 244.219 231.386 243.72 234.333 243.72C237.327 243.72 239.964 244.219 242.246 245.217C244.551 246.191 246.487 247.557 248.056 249.316C249.624 251.074 250.812 253.154 251.62 255.554C252.428 257.93 252.832 260.532 252.832 263.36V264.108C252.832 266.912 252.428 269.514 251.62 271.915C250.812 274.291 249.624 276.37 248.056 278.152C246.487 279.911 244.562 281.277 242.281 282.251C240 283.226 237.374 283.713 234.404 283.713C231.457 283.713 228.831 283.226 226.526 282.251C224.221 281.277 222.285 279.911 220.716 278.152C219.148 276.37 217.96 274.291 217.152 271.915C216.344 269.514 215.94 266.912 215.94 264.108ZM227.097 263.36V264.108C227.097 265.629 227.215 267.055 227.453 268.386C227.715 269.716 228.13 270.881 228.701 271.879C229.271 272.877 230.02 273.661 230.946 274.231C231.897 274.778 233.049 275.051 234.404 275.051C235.758 275.051 236.899 274.778 237.826 274.231C238.752 273.661 239.501 272.877 240.071 271.879C240.642 270.881 241.046 269.716 241.283 268.386C241.545 267.055 241.675 265.629 241.675 264.108V263.36C241.675 261.863 241.545 260.461 241.283 259.154C241.046 257.823 240.642 256.647 240.071 255.625C239.501 254.603 238.741 253.807 237.79 253.237C236.863 252.667 235.711 252.381 234.333 252.381C233.002 252.381 231.873 252.667 230.946 253.237C230.02 253.807 229.271 254.603 228.701 255.625C228.13 256.647 227.715 257.823 227.453 259.154C227.215 260.461 227.097 261.863 227.097 263.36ZM270.048 272.271L277.605 244.433H284.627L282.239 256.837L274.682 283H268.943L270.048 272.271ZM266.591 244.433L271.652 272.164L272.187 283H265.343L255.862 244.433H266.591ZM291.471 271.629L296.497 244.433H307.226L297.815 283H290.972L291.471 271.629ZM285.482 244.433L293.11 272.128L294.215 283H288.405L280.92 256.873L278.639 244.433H285.482ZM352.815 273.697V244.433H364.007V283H353.528L352.815 273.697ZM353.991 265.819L357.057 265.748C357.057 268.338 356.748 270.726 356.13 272.913C355.536 275.099 354.633 277 353.421 278.616C352.233 280.232 350.748 281.491 348.965 282.394C347.207 283.273 345.151 283.713 342.799 283.713C340.898 283.713 339.151 283.451 337.559 282.929C335.991 282.382 334.636 281.539 333.496 280.398C332.355 279.234 331.476 277.748 330.858 275.942C330.24 274.113 329.931 271.926 329.931 269.384V244.433H341.052V269.455C341.052 270.453 341.171 271.309 341.409 272.021C341.67 272.711 342.015 273.281 342.442 273.732C342.894 274.184 343.44 274.517 344.082 274.73C344.747 274.944 345.472 275.051 346.256 275.051C348.229 275.051 349.773 274.647 350.89 273.839C352.031 273.008 352.827 271.903 353.278 270.524C353.754 269.122 353.991 267.554 353.991 265.819ZM391.774 272.271C391.774 271.558 391.549 270.928 391.097 270.382C390.669 269.835 389.885 269.336 388.745 268.885C387.628 268.433 386.048 267.982 384.004 267.53C382.079 267.126 380.285 266.604 378.622 265.962C376.958 265.297 375.509 264.5 374.273 263.574C373.037 262.623 372.075 261.506 371.386 260.223C370.697 258.916 370.352 257.431 370.352 255.768C370.352 254.152 370.697 252.619 371.386 251.169C372.099 249.72 373.12 248.437 374.451 247.32C375.806 246.203 377.445 245.324 379.37 244.682C381.319 244.041 383.529 243.72 386 243.72C389.398 243.72 392.333 244.254 394.804 245.324C397.276 246.369 399.177 247.843 400.507 249.744C401.838 251.621 402.503 253.771 402.503 256.195H391.382C391.382 255.197 391.192 254.33 390.812 253.593C390.432 252.857 389.85 252.286 389.065 251.882C388.281 251.455 387.248 251.241 385.964 251.241C384.966 251.241 384.087 251.419 383.327 251.775C382.59 252.108 382.008 252.571 381.58 253.166C381.176 253.76 380.974 254.449 380.974 255.233C380.974 255.779 381.093 256.278 381.331 256.73C381.592 257.158 381.984 257.562 382.507 257.942C383.053 258.298 383.754 258.619 384.61 258.904C385.489 259.189 386.558 259.463 387.818 259.724C390.503 260.223 392.951 260.924 395.161 261.827C397.394 262.73 399.177 263.978 400.507 265.57C401.862 267.162 402.539 269.265 402.539 271.879C402.539 273.59 402.147 275.158 401.363 276.584C400.602 278.01 399.497 279.257 398.048 280.327C396.598 281.396 394.864 282.228 392.844 282.822C390.824 283.416 388.543 283.713 386 283.713C382.364 283.713 379.287 283.059 376.768 281.752C374.249 280.445 372.348 278.806 371.065 276.833C369.806 274.837 369.176 272.794 369.176 270.703H379.62C379.667 271.986 379.988 273.031 380.582 273.839C381.2 274.647 381.996 275.241 382.97 275.622C383.944 275.978 385.038 276.156 386.25 276.156C387.461 276.156 388.471 275.99 389.279 275.657C390.087 275.325 390.705 274.873 391.133 274.303C391.561 273.709 391.774 273.031 391.774 272.271Z" fill="white"/>
</svg>
