<?xml version="1.0" encoding="UTF-8"?>
<svg id="Layer_1" data-name="Layer 1" xmlns="http://www.w3.org/2000/svg" xmlns:xlink="http://www.w3.org/1999/xlink" viewBox="0 0 96.36 93">
  <defs>
    <style>
      .cls-1 {
        clip-path: url(#clippath);
      }

      .cls-2 {
        fill: none;
      }

      .cls-2, .cls-3 {
        stroke-width: 0px;
      }

      .cls-3 {
        fill: #354162;
      }
    </style>
    <clipPath id="clippath">
      <rect class="cls-2" x="-.09" width="96.75" height="93"/>
    </clipPath>
  </defs>
  <g class="cls-1">
    <path class="cls-3" d="m36.18,89.91l.7-4.51,52.66.33,2.54,4.18h-55.9Zm-29.15-4.51h19.38l-.7,4.51H4.29l2.74-4.51Zm14.94-24.64h8.27l-2.22,14.26h-14.7l8.65-14.26Zm11.28-51.47c3.82-3.82,9.11-6.18,14.94-6.18s11.12,2.36,14.94,6.18c3.82,3.82,6.19,9.1,6.19,14.93,0,6.66-8.54,22.14-15.44,34.16-.01.02-.03.04-.04.06l-2.14,3.73c-.66,1.14-1.28,2.23-1.87,3.26-.59,1.02-1.13,1.98-1.63,2.87-1-1.79-2.21-3.87-3.52-6.15-.01-.02-.03-.05-.04-.07l-2.05-3.57c-.03-.07-.07-.13-.11-.19-6.89-12.01-15.41-27.43-15.41-34.11,0-5.83,2.37-11.11,6.19-14.93Zm22.83,51.47h18.33l8.85,14.59-44.76-.31,2.13-13.72,1.38,2.38c1.96,3.39,3.67,6.35,4.83,8.53.03.06.07.11.1.16,0,.01.02.03.03.04.03.05.07.09.11.13,0,0,.01.02.02.02.05.05.1.09.15.13.01,0,.02.02.04.03.06.04.12.08.18.11,0,0,0,0,0,0,.05.02.09.05.14.07.03.01.06.02.08.03.02,0,.04.01.06.02.03,0,.07.02.1.03.01,0,.03,0,.04,0,.03,0,.07,0,.1.01.02,0,.03,0,.05,0,.03,0,.06,0,.08,0,.02,0,.05,0,.07,0s.05,0,.07,0c.03,0,.06,0,.08,0,.02,0,.03,0,.05,0,.03,0,.07,0,.1-.01.01,0,.03,0,.04,0,.03,0,.07-.01.1-.03.02,0,.04-.01.06-.02.03,0,.06-.02.08-.03.05-.02.09-.04.14-.07,0,0,0,0,0,0,.06-.03.12-.07.18-.11.01,0,.02-.02.04-.03.05-.04.1-.08.15-.13,0,0,.01-.02.02-.02.04-.04.08-.08.11-.13,0-.01.02-.03.03-.04.04-.05.07-.11.1-.17.49-.91,1.08-1.97,1.74-3.14.02-.04.04-.08.07-.12.04-.08.09-.15.13-.23.06-.1.12-.2.18-.31,0-.02.02-.03.03-.05.09-.16.19-.33.28-.49.05-.09.11-.19.16-.28.05-.09.1-.18.15-.27.64-1.13,1.34-2.33,2.07-3.6.08-.13.15-.27.23-.4l1.49-2.58Zm-22.04,22.87l-.98,6.29h-4.22l.91-5.83c.13-.84-.45-1.63-1.29-1.76-.08-.01-.16-.02-.24-.02h0s-19.31,0-19.31,0l2.54-4.19h17.9c.82,0,1.49-.64,1.54-1.45l2.47-15.91h4.22l-2.42,15.57c-.13.84.45,1.63,1.29,1.76.08.01.17.02.25.02l48.43.34,2.54,4.19-52.1-.33c-.78,0-1.42.57-1.53,1.32Zm62.11,7.04l-19.47-32.12c-.25-.52-.78-.88-1.4-.88h-17.43c6.81-11.96,14.58-26.49,14.58-33.44s-2.71-12.74-7.1-17.12C60.93,2.71,54.87,0,48.18,0s-12.75,2.71-17.13,7.09c-4.38,4.38-7.1,10.43-7.1,17.12s7.76,21.49,14.57,33.44h-17.42c-.52,0-1.03.27-1.32.75L.31,90.53c-.19.26-.31.58-.31.93,0,.85.69,1.55,1.55,1.55h93.27c.27,0,.55-.08.8-.23.73-.44.96-1.39.52-2.12ZM43.21,18.49l.07-.07c1.26-1.23,2.99-1.98,4.9-1.98s3.7.79,4.97,2.06l.08.07c1.23,1.26,1.98,2.99,1.98,4.89s-.79,3.7-2.05,4.97c-1.27,1.27-3.03,2.06-4.98,2.06s-3.7-.78-4.97-2.06c-1.27-1.27-2.06-3.03-2.06-4.97,0-1.94.78-3.7,2.05-4.97Zm4.97,15.09c2.79,0,5.32-1.13,7.15-2.96,1.84-1.83,2.97-4.36,2.97-7.15s-1.1-5.23-2.88-7.06l-.09-.09c-1.83-1.83-4.37-2.96-7.16-2.96s-5.24,1.1-7.07,2.88l-.09.08c-1.83,1.83-2.97,4.36-2.97,7.15s1.13,5.32,2.97,7.15h0c1.83,1.83,4.36,2.96,7.15,2.96Z"/>
  </g>
</svg>