<?xml version="1.0" encoding="UTF-8"?>
<svg id="Layer_1" data-name="Layer 1" xmlns="http://www.w3.org/2000/svg" xmlns:xlink="http://www.w3.org/1999/xlink" viewBox="0 0 90.75 75.76">
  <defs>
    <style>
      .cls-1 {
        clip-path: url(#clippath);
      }

      .cls-2 {
        fill: none;
      }

      .cls-2, .cls-3 {
        stroke-width: 0px;
      }

      .cls-3 {
        fill: #354162;
      }
    </style>
    <clipPath id="clippath">
      <rect class="cls-2" width="90.75" height="75.75"/>
    </clipPath>
  </defs>
  <g class="cls-1">
    <path class="cls-3" d="m62.29,0h-11.72c-.89,0-1.62.73-1.62,1.62s.72,1.62,1.62,1.62h7.92l-17.05,16.46-10.54-7.82c-.65-.48-1.56-.41-2.12.18L3.19,38.61c-.62.64-.6,1.67.04,2.29.31.31.72.46,1.12.46s.84-.17,1.16-.49L30.12,15.34l10.5,7.79c.63.47,1.51.41,2.08-.14L60.67,5.64v8.25c0,.9.72,1.62,1.62,1.62s1.62-.73,1.62-1.62V1.62c0-.9-.72-1.62-1.62-1.62ZM22.07,70.74c0,.98-.79,1.77-1.77,1.77H5.05c-.97,0-1.77-.8-1.77-1.77v-21.38c0-.98.79-1.77,1.77-1.77h15.25c.97,0,1.77.8,1.77,1.77v21.38h0Zm-1.77-26.4H5.05C2.3,44.34.05,46.59.05,49.36v21.38c0,2.77,2.24,5.02,5,5.02h15.25c2.76,0,5-2.25,5-5.02v-21.38c0-2.77-2.24-5.02-5-5.02Zm34.46,26.4c0,.98-.79,1.77-1.77,1.77h-15.25c-.97,0-1.77-.8-1.77-1.77v-35.42c0-.98.79-1.77,1.77-1.77h15.25c.97,0,1.77.8,1.77,1.77v35.42Zm-1.77-40.44h-15.25c-2.76,0-5,2.25-5,5.02v35.42c0,2.77,2.24,5.02,5,5.02h15.25c2.76,0,5-2.25,5-5.02v-35.42c0-2.77-2.24-5.02-5-5.02Zm34.46,40.44c0,.98-.79,1.77-1.77,1.77h-15.25c-.97,0-1.77-.8-1.77-1.77V21.28c0-.98.79-1.77,1.77-1.77h15.25c.97,0,1.77.8,1.77,1.77v49.46Zm-1.77-54.48h-15.25c-2.76,0-5,2.25-5,5.02v49.46c0,2.77,2.24,5.02,5,5.02h15.25c2.76,0,5-2.25,5-5.02V21.28c0-2.77-2.24-5.02-5-5.02Z"/>
  </g>
</svg>