<?xml version="1.0" encoding="UTF-8"?>
<svg id="Layer_1" data-name="Layer 1" xmlns="http://www.w3.org/2000/svg" xmlns:xlink="http://www.w3.org/1999/xlink" viewBox="0 0 92.25 93">
  <defs>
    <style>
      .cls-1 {
        clip-path: url(#clippath);
      }

      .cls-2 {
        fill: none;
      }

      .cls-2, .cls-3 {
        stroke-width: 0px;
      }

      .cls-3 {
        fill: #354162;
      }
    </style>
    <clipPath id="clippath">
      <rect class="cls-2" width="92.25" height="93"/>
    </clipPath>
  </defs>
  <g class="cls-1">
    <path class="cls-3" d="m3.65,89.36h84.94v-3.64H3.65v3.64Zm86.75,3.64H1.85c-1,0-1.81-.81-1.81-1.82v-7.27c0-1,.81-1.82,1.81-1.82h88.56c1,0,1.81.81,1.81,1.82v7.27c0,1-.81,1.82-1.81,1.82Z"/>
    <path class="cls-3" d="m7.58,45.72h8.27l-1.28-29.11h-5.59s-1.41,29.11-1.41,29.11Zm10.16,3.64H5.69c-1.03,0-1.86-.87-1.81-1.91l1.58-32.73c.05-.97.84-1.73,1.8-1.73.02,0,9.06-.02,9.04-.02.97,0,1.76.77,1.81,1.74l1.44,32.75c.02.5-.16.98-.5,1.34-.34.36-.81.56-1.31.56Z"/>
    <path class="cls-3" d="m16.62,23.87H6.92c-1,0-1.81-.81-1.81-1.82s.81-1.82,1.81-1.82h9.71c1,0,1.81.81,1.81,1.82s-.81,1.82-1.81,1.82Z"/>
    <path class="cls-3" d="m17.02,32.95H6.48c-1,0-1.81-.81-1.81-1.82s.81-1.82,1.81-1.82h10.54c1,0,1.81.81,1.81,1.82s-.81,1.82-1.81,1.82Z"/>
    <path class="cls-3" d="m65.1,82.09h16.27v-27.28h-16.27v27.28Zm18.07,3.64h-19.88c-1,0-1.81-.81-1.81-1.82v-30.92c0-1,.81-1.82,1.81-1.82h19.88c1,0,1.81.81,1.81,1.82v30.92c0,1-.81,1.82-1.81,1.82Z"/>
    <path class="cls-3" d="m10.88,60.27h7.23v-3.64h-7.23v3.64Zm9.04,3.64h-10.84c-1,0-1.81-.81-1.81-1.82v-7.27c0-1,.81-1.82,1.81-1.82h10.84c1,0,1.81.81,1.81,1.82v7.27c0,1-.81,1.82-1.81,1.82Z"/>
    <path class="cls-3" d="m28.96,60.27h7.23v-3.64h-7.23v3.64Zm9.04,3.64h-10.84c-1,0-1.81-.81-1.81-1.82v-7.27c0-1,.81-1.82,1.81-1.82h10.84c1,0,1.81.81,1.81,1.82v7.27c0,1-.81,1.82-1.81,1.82Z"/>
    <path class="cls-3" d="m47.03,60.27h7.23v-3.64h-7.23v3.64Zm9.04,3.64h-10.84c-1,0-1.81-.81-1.81-1.82v-7.27c0-1,.81-1.82,1.81-1.82h10.84c1,0,1.81.81,1.81,1.82v7.27c0,1-.81,1.82-1.81,1.82Z"/>
    <path class="cls-3" d="m10.88,74.81h7.23v-3.64h-7.23v3.64Zm9.04,3.64h-10.84c-1,0-1.81-.81-1.81-1.82v-7.27c0-1,.81-1.82,1.81-1.82h10.84c1,0,1.81.81,1.81,1.82v7.27c0,1-.81,1.82-1.81,1.82Z"/>
    <path class="cls-3" d="m28.96,74.81h7.23v-3.64h-7.23v3.64Zm9.04,3.64h-10.84c-1,0-1.81-.81-1.81-1.82v-7.27c0-1,.81-1.82,1.81-1.82h10.84c1,0,1.81.81,1.81,1.82v7.27c0,1-.81,1.82-1.81,1.82Z"/>
    <path class="cls-3" d="m47.03,74.81h7.23v-3.64h-7.23v3.64Zm9.04,3.64h-10.84c-1,0-1.81-.81-1.81-1.82v-7.27c0-1,.81-1.82,1.81-1.82h10.84c1,0,1.81.81,1.81,1.82v7.27c0,1-.81,1.82-1.81,1.82Z"/>
    <path class="cls-3" d="m29.27,45.72h8.27l-1.28-29.11h-5.59s-1.41,29.11-1.41,29.11Zm10.16,3.64h-12.05c-1.03,0-1.86-.87-1.81-1.91l1.58-32.73c.05-.97.84-1.73,1.8-1.73.02,0,9.06-.02,9.04-.02.97,0,1.76.77,1.81,1.74l1.44,32.75c.05,1.03-.78,1.9-1.81,1.9Z"/>
    <path class="cls-3" d="m38.31,23.87h-9.71c-1,0-1.81-.81-1.81-1.82s.81-1.82,1.81-1.82h9.71c1,0,1.81.81,1.81,1.82s-.81,1.82-1.81,1.82Z"/>
    <path class="cls-3" d="m38.71,32.95h-10.54c-1,0-1.81-.81-1.81-1.82s.81-1.82,1.81-1.82h10.54c1,0,1.81.81,1.81,1.82s-.81,1.82-1.81,1.82Z"/>
    <path class="cls-3" d="m3.65,82.09h84.94V30.19l-28.92,11.32v6.03c0,1-.81,1.82-1.81,1.82H3.65v32.73Zm86.75,3.64H1.85c-1,0-1.81-.81-1.81-1.82v-36.37c0-1,.81-1.82,1.81-1.82h54.22v-5.46c0-.75.46-1.42,1.15-1.69l32.53-12.73c1.19-.46,2.46.42,2.46,1.69v56.37c0,1-.81,1.82-1.81,1.82Z"/>
    <path class="cls-3" d="m57.87,49.36h-10.84c-1,0-1.81-.81-1.81-1.82v-12.73c0-.76.47-1.44,1.18-1.71l34.34-12.73c.55-.21,1.17-.13,1.66.21.48.34.77.9.77,1.49v8.97c0,1-.81,1.82-1.81,1.82s-1.81-.81-1.81-1.82v-6.36l-30.72,11.39v9.64h9.04c1,0,1.81.81,1.81,1.82s-.81,1.82-1.81,1.82Z"/>
    <path class="cls-3" d="m30.79,7.68c-.51-.86-.24-1.98.62-2.5,1.13-.68,1.98-.74,2.55-.77.4-.03.55-.04.93-.26.38-.23.46-.36.67-.7.3-.49.75-1.22,1.88-1.9,1.13-.68,1.98-.74,2.55-.77.4-.03.55-.04.93-.26.86-.52,1.97-.24,2.48.62.51.86.24,1.98-.62,2.5-1.13.68-1.98.74-2.55.77-.4.03-.55.04-.93.26-.38.23-.46.36-.67.7-.3.49-.75,1.22-1.88,1.9-1.13.68-1.98.74-2.55.77-.4.03-.55.04-.93.26-.86.52-1.97.23-2.48-.62Z"/>
    <path class="cls-3" d="m8.87,7.68c-.51-.86-.24-1.98.62-2.5,1.13-.68,1.98-.74,2.55-.77.4-.03.55-.04.93-.26.38-.23.46-.36.67-.7.3-.49.75-1.22,1.88-1.9,1.13-.68,1.98-.74,2.55-.77.4-.03.55-.04.93-.26.86-.52,1.97-.24,2.48.62.51.86.24,1.98-.62,2.5-1.13.68-1.98.74-2.55.77-.4.03-.55.04-.93.26-.38.23-.46.36-.67.7-.3.49-.75,1.22-1.88,1.9-1.13.68-1.98.74-2.55.77-.4.03-.55.04-.93.26-.86.52-1.97.23-2.48-.62Z"/>
  </g>
</svg>