<?xml version="1.0" encoding="UTF-8"?>
<svg id="Layer_1" data-name="Layer 1" xmlns="http://www.w3.org/2000/svg" xmlns:xlink="http://www.w3.org/1999/xlink" viewBox="0 0 81 80.25">
  <defs>
    <style>
      .cls-1 {
        clip-path: url(#clippath);
      }

      .cls-2 {
        fill: none;
      }

      .cls-2, .cls-3 {
        stroke-width: 0px;
      }

      .cls-3 {
        fill: #354162;
      }
    </style>
    <clipPath id="clippath">
      <rect class="cls-2" y="0" width="81" height="80.25"/>
    </clipPath>
  </defs>
  <g class="cls-1">
    <path class="cls-3" d="m70.37,18.25c.22-.35-3.06-4.08-5.19-5.9-2.79-2.4-3.88-3.17-6.09-4.34l-2.94-1.56c-.49-.26-.99-.48-1.1-.49-.33-.02.78,1.66,2.51,3.81.89,1.11,2.37,3.46,3.3,5.22.93,1.76,1.87,3.26,2.1,3.32.83.23,7.26.17,7.41-.06h0Zm-11.77,0c.23-.37-2.16-4.6-3.87-6.87-2.16-2.86-4.95-5.24-7.66-6.55-2.61-1.26-3.47-1.52-4.22-1.28-.5.16-.55.61-.73,7.17-.14,5.1-.1,7.1.13,7.38.26.31,1.85.38,8.26.38,4.37,0,8.01-.11,8.09-.24h0Zm-20.12-.07c.3-.25.38-1.8.38-7.38V3.73l-.7-.17c-.92-.23-1.7-.02-4.21,1.15-2.59,1.2-5.75,3.9-7.95,6.77-2.05,2.68-4.22,6.68-3.77,6.96.54.33,15.83.09,16.25-.26h0Zm-20.59.24c.24-.19,1.12-1.67,1.94-3.28.82-1.61,2.42-4.11,3.55-5.55,1.17-1.49,1.95-2.72,1.81-2.86-.32-.32-4.96,2.34-7.18,4.11-3.24,2.59-7.31,6.91-7.08,7.52.21.54,6.28.58,6.96.05h0Zm59.44,19.23c.41-.31.42-.62.1-3-.6-4.49-3.33-11.86-4.77-12.9-.47-.34-8.24-.08-8.61.29-.24.24-.2.57.16,1.31.26.55.66,2.03.88,3.29.22,1.26.53,2.74.69,3.27s.37,2.4.47,4.14c.12,2.15.3,3.29.57,3.55.54.54,9.82.58,10.52.05h0Zm-14.43,0c.7-.86-.73-10.67-2.09-14.29l-.52-1.39h-18.2l-.14,7.62c-.08,4.19-.04,7.8.08,8.01.31.55,20.43.6,20.88.05h0Zm-24.32-7.46c.08-4.22.03-7.82-.1-8.01-.19-.27-2.27-.35-8.83-.34-4.72,0-8.72.1-8.88.21-.52.35-1.27,2.6-1.96,5.84-.72,3.38-1.38,9.08-1.13,9.73.13.34,1.7.39,10.46.33l10.31-.07.14-7.67h0Zm-24.57,7.5c.18-.26.37-1.4.41-2.52.11-2.9,1.59-10.88,2.25-12.17.54-1.05.14-1.17-3.91-1.17-3.5,0-3.96.06-4.45.55-.8.8-1.83,2.94-2.69,5.61-.42,1.29-.93,2.88-1.14,3.54-.59,1.84-.83,5.81-.38,6.34.31.38,1.05.43,4.97.37,3.97-.06,4.64-.14,4.93-.55h0Zm58.95,20.31c1.13-1.26,2.08-3.32,3.15-6.81,1.28-4.21,2.03-9.48,1.4-9.88-.63-.4-9.87-.31-10.41.1-.36.27-.53,1.15-.75,3.93-.31,3.91-1.24,9.26-1.86,10.71-.21.5-.39,1.29-.39,1.74v.83h4.16c3.96,0,4.18-.03,4.72-.63h0Zm-12.7,0c1.55-2.46,3.73-15.88,2.69-16.52-.41-.25-20.53-.16-20.78.09-.26.27-.64,15.4-.4,16.32l.19.74h17.92l.4-.63h0Zm-21.95.18c.17-.44.25-3.92.2-8.71l-.07-7.99-10.09-.07c-5.56-.04-10.27.04-10.48.18-.33.21-.34.82-.08,3.83.5,5.76,2.15,12.58,3.19,13.24.2.12,4.11.23,8.71.23h8.35s.28-.72.28-.72h0Zm-21.44.43c.1-.17-.01-.82-.25-1.46-.71-1.89-2.07-9.31-2.25-12.28-.09-1.51-.31-2.93-.49-3.14-.25-.3-1.34-.38-4.84-.38-2.49,0-4.71.12-4.93.26-1.2.76.72,9.86,3.03,14.35,1.55,3.02,1.4,2.94,5.77,2.94,2.39,0,3.84-.11,3.95-.3h0Zm8.22,14.28c-.21-.28-1.15-1.52-2.1-2.76-.94-1.23-2.25-3.29-2.91-4.57-1.79-3.48-1.51-3.31-5.38-3.31-2.79,0-3.32.07-3.32.43,0,.55,4.96,5.51,7.12,7.12,3.6,2.69,7.72,4.62,6.58,3.09h0Zm32.07.44c.8-.5,2.07-1.22,2.81-1.6,3.11-1.58,10.66-8.63,10.14-9.47-.27-.43-7.29-.37-7.64.07-.15.19-.94,1.62-1.74,3.18-.81,1.56-2.46,4.1-3.68,5.66-1.22,1.56-2.22,2.89-2.22,2.96,0,.37,1.04.02,2.33-.79h0Zm-18.86-3.69c.08-3.68.03-6.93-.1-7.21-.21-.46-.45-.5-1.93-.35-.93.1-4.45.18-7.82.18-5.88,0-6.13.02-6.13.54,0,.3.11.61.25.69.14.08.59.81,1.01,1.62,2.97,5.7,9.76,11.45,13.31,11.28l1.26-.06.14-6.69h0Zm8.91,5.71c3.68-1.86,7.82-6.16,10.28-10.68.57-1.05.97-2.08.89-2.3-.2-.53-15.84-.59-16.37-.06-.36.36-.51,13.9-.15,14.25.44.44,3.43-.24,5.36-1.21h0Zm-12.97,4.48c-.31-.14-.9-.26-1.31-.27-1.11-.03-8-2.19-9.32-2.92-.63-.35-2.15-1.18-3.38-1.85-3.31-1.8-7.83-5.64-10.73-9.13-2.48-2.98-6.23-9.32-6.66-11.26-.1-.47-.56-2-1.02-3.4C.45,46.84,0,40.47.65,34.66c.72-6.4,4.05-14.39,7.9-18.95.71-.84,1.54-1.84,1.85-2.23.72-.9,2.61-2.77,3.51-3.49.39-.31,1.39-1.13,2.24-1.83.85-.7,1.98-1.54,2.52-1.86,2.88-1.7,6.46-3.52,7.57-3.85C33.76.23,35.11,0,40.54,0c4.07,0,8.14.43,9.95,1.04.62.21,2.07.66,3.23.99,2.08.61,4.92,1.92,7.79,3.6.82.48,1.56.87,1.65.87s.94.66,1.88,1.47,2.32,1.95,3.05,2.53c1.79,1.43,6.15,6.82,7.46,9.24.58,1.07,1.38,2.51,1.77,3.2.76,1.35,2.59,6.86,3.07,9.26.53,2.64.61,11.89.12,14.7-1.72,9.94-6.83,18.43-15.06,25.01-2.05,1.64-2.86,2.14-7.08,4.4-2.02,1.08-5.99,2.43-9.29,3.14-2.25.49-13.93.77-14.86.36h0Z"/>
  </g>
</svg>