<svg width="500" height="500" viewBox="0 0 500 500" fill="none" xmlns="http://www.w3.org/2000/svg">
<mask id="mask0_3_158" style="mask-type:luminance" maskUnits="userSpaceOnUse" x="25" y="164" width="450" height="173">
<path d="M475 164H25V336.43H475V164Z" fill="white"/>
</mask>
<g mask="url(#mask0_3_158)">
<path d="M238.645 190.832C223.505 175.636 202.589 166.243 179.486 166.243C156.383 166.243 135.467 175.636 120.327 190.832C105.187 206.028 95.8225 227.028 95.8225 250.215C95.8225 273.402 105.187 294.402 120.327 309.57C135.467 324.766 156.383 334.159 179.486 334.159C202.589 334.159 223.505 324.766 238.645 309.57C253.785 294.374 263.15 273.374 263.15 250.215C263.15 227.056 253.785 206.028 238.645 190.832Z" fill="#ED0000"/>
<path fill-rule="evenodd" clip-rule="evenodd" d="M213.187 253.944L163.477 282.738C162.103 283.523 160.561 283.523 159.187 282.738C157.813 281.953 157.028 280.579 157.028 279.009V221.421C157.028 219.85 157.813 218.477 159.187 217.692C160.561 216.878 162.103 216.878 163.477 217.692L213.187 246.486C214.561 247.271 215.318 248.645 215.318 250.215C215.318 251.785 214.533 253.159 213.187 253.944Z" fill="#FEFEFE"/>
<path fill-rule="evenodd" clip-rule="evenodd" d="M88.8974 308.168C90.7759 311.477 89.6544 315.682 86.3741 317.561C83.0937 319.467 78.9161 318.318 77.0376 315.037C71.4021 305.224 67.0283 294.71 64.1124 283.776C61.1965 272.841 59.7105 261.542 59.7105 250.215C59.7105 238.888 61.1965 227.589 64.1124 216.654C67.0283 205.72 71.4021 195.178 77.0376 185.364C78.9161 182.084 83.1498 180.963 86.4021 182.869C89.6825 184.776 90.804 189.009 88.8974 192.29C83.8507 201.037 79.9815 210.458 77.3741 220.243C74.7666 230.028 73.4488 240.093 73.4488 250.243C73.4488 260.393 74.7666 270.458 77.3741 280.243C79.9815 290.028 83.8507 299.449 88.8974 308.196V308.168ZM59.5984 325.159C61.4769 328.439 60.3554 332.645 57.075 334.551C53.7946 336.43 49.617 335.308 47.7105 332.028C40.589 319.664 35.0937 306.374 31.4208 292.579C27.7199 278.785 25.8694 264.514 25.8694 250.243C25.8694 235.972 27.7479 221.701 31.4208 207.907C35.0937 194.112 40.589 180.822 47.7105 168.458C49.617 165.15 53.8227 164 57.075 165.879C60.3554 167.757 61.5049 171.991 59.5984 175.271C53.0937 186.598 48.075 198.766 44.7105 211.411C41.346 224.056 39.6357 237.121 39.6357 250.187C39.6357 263.252 41.346 276.318 44.7105 288.963C48.075 301.607 53.0937 313.776 59.5984 325.103V325.159Z" fill="#ED0000"/>
<path d="M474.159 254.785C474.159 255.85 474.131 256.72 474.047 257.449C473.963 258.15 473.823 258.738 473.627 259.159C473.43 259.607 473.206 259.916 472.926 260.14C472.673 260.336 472.337 260.449 472.028 260.449H436.561C435.356 260.449 434.346 260.084 433.533 259.383C432.692 258.682 432.3 257.505 432.3 255.907V194C432.3 192.402 432.692 191.224 433.533 190.523C434.346 189.822 435.356 189.458 436.561 189.458H471.86C472.169 189.458 472.477 189.542 472.729 189.738C472.982 189.935 473.206 190.243 473.402 190.692C473.571 191.168 473.711 191.757 473.795 192.458C473.879 193.187 473.935 194.084 473.935 195.178C473.935 196.215 473.907 197.084 473.795 197.785C473.711 198.514 473.571 199.075 473.402 199.495C473.206 199.944 472.982 200.28 472.729 200.477C472.477 200.673 472.169 200.757 471.86 200.757H446.627V218.056H467.879C468.215 218.056 468.524 218.14 468.776 218.364C469.057 218.561 469.281 218.869 469.477 219.29C469.673 219.71 469.785 220.271 469.898 221C469.982 221.701 470.01 222.57 470.01 223.579C470.01 224.645 470.01 225.514 469.898 226.215C469.785 226.916 469.673 227.449 469.477 227.869C469.309 228.29 469.057 228.598 468.776 228.766C468.524 228.935 468.215 229.047 467.879 229.047H446.627V249.037H472.028C472.365 249.037 472.673 249.121 472.926 249.318C473.206 249.514 473.43 249.85 473.627 250.299C473.795 250.72 473.935 251.308 474.047 252.037C474.131 252.766 474.159 253.636 474.159 254.701V254.785ZM401.346 257.925C401.15 258.542 400.926 259.047 400.645 259.411C400.337 259.804 399.86 260.084 399.215 260.308C398.571 260.505 397.673 260.645 396.524 260.701C395.402 260.757 393.944 260.757 392.094 260.757C390.636 260.757 389.402 260.757 388.365 260.757C387.328 260.757 386.458 260.673 385.701 260.617C384.972 260.561 384.384 260.449 383.935 260.308C383.458 260.168 383.094 259.972 382.785 259.748C382.505 259.551 382.253 259.243 382.085 258.963C381.916 258.654 381.776 258.262 381.608 257.785L360.58 194.869C360.159 193.551 359.879 192.486 359.795 191.729C359.711 190.972 359.879 190.383 360.356 189.991C360.804 189.626 361.589 189.374 362.655 189.29C363.748 189.206 365.29 189.178 367.281 189.178C368.963 189.178 370.253 189.178 371.206 189.29C372.131 189.346 372.888 189.486 373.393 189.654C373.898 189.822 374.262 190.131 374.43 190.467C374.627 190.832 374.823 191.308 375.019 191.841L392.206 246.598H392.262L409.169 192.121C409.309 191.505 409.505 191 409.701 190.636C409.926 190.243 410.29 189.935 410.823 189.71C411.356 189.514 412.113 189.346 413.094 189.29C414.047 189.206 415.421 189.178 417.131 189.178C418.842 189.178 420.103 189.234 421.057 189.346C421.982 189.458 422.627 189.71 422.963 190.131C423.3 190.551 423.412 191.168 423.271 191.925C423.159 192.71 422.851 193.692 422.43 195.009L401.29 257.981L401.346 257.925ZM350.739 258.486C350.739 258.85 350.627 259.187 350.374 259.495C350.122 259.776 349.729 260 349.197 260.196C348.664 260.364 347.907 260.505 347.01 260.617C346.085 260.729 344.935 260.785 343.505 260.785C342.075 260.785 340.954 260.729 340.028 260.617C339.103 260.505 338.346 260.364 337.814 260.196C337.281 260 336.888 259.776 336.636 259.495C336.384 259.187 336.271 258.85 336.271 258.486V191.421C336.271 191.056 336.384 190.72 336.636 190.411C336.888 190.131 337.281 189.878 337.842 189.71C338.402 189.514 339.131 189.402 340.028 189.29C340.954 189.178 342.103 189.121 343.477 189.121C344.851 189.121 346.085 189.178 346.982 189.29C347.879 189.402 348.636 189.514 349.169 189.71C349.701 189.878 350.094 190.131 350.346 190.411C350.599 190.72 350.711 191.056 350.711 191.421V258.458L350.739 258.486ZM327.804 254.421C327.804 255.514 327.776 256.439 327.664 257.196C327.58 257.953 327.44 258.57 327.271 259.047C327.075 259.551 326.851 259.916 326.571 260.112C326.29 260.336 325.982 260.449 325.617 260.449H293.234C292.057 260.449 291.047 260.084 290.206 259.383C289.393 258.682 288.972 257.505 288.972 255.907V191.421C288.972 191.056 289.085 190.72 289.337 190.411C289.561 190.131 289.982 189.878 290.514 189.71C291.047 189.514 291.804 189.402 292.729 189.29C293.655 189.178 294.804 189.121 296.206 189.121C297.608 189.121 298.814 189.178 299.711 189.29C300.608 189.402 301.365 189.514 301.898 189.71C302.43 189.878 302.823 190.131 303.075 190.411C303.3 190.72 303.44 191.056 303.44 191.421V248.533H325.645C326.01 248.533 326.346 248.617 326.599 248.841C326.879 249.037 327.103 249.346 327.3 249.822C327.468 250.271 327.608 250.888 327.692 251.645C327.776 252.402 327.832 253.299 327.832 254.421H327.804Z" fill="#ED0000"/>
<path d="M472.953 309.907C472.953 310.047 472.925 310.215 472.841 310.327C472.757 310.439 472.589 310.551 472.365 310.635C472.14 310.72 471.832 310.776 471.439 310.832C471.075 310.86 470.57 310.888 470.01 310.888C469.449 310.888 468.972 310.888 468.58 310.832C468.215 310.776 467.907 310.72 467.682 310.635C467.458 310.579 467.29 310.467 467.206 310.327C467.122 310.215 467.066 310.047 467.066 309.907V285.037H467.009L458.206 309.907C458.15 310.103 458.066 310.271 457.897 310.411C457.757 310.551 457.561 310.664 457.309 310.748C457.084 310.804 456.748 310.86 456.383 310.888C455.991 310.888 455.542 310.888 455.009 310.888C454.477 310.888 454.028 310.888 453.636 310.832C453.271 310.804 452.935 310.72 452.71 310.635C452.486 310.551 452.29 310.439 452.15 310.327C452.01 310.215 451.925 310.047 451.869 309.878L443.402 285.009H443.346V309.878C443.346 310.019 443.318 310.187 443.234 310.299C443.15 310.411 442.981 310.523 442.757 310.607C442.505 310.692 442.196 310.748 441.832 310.804C441.467 310.832 440.991 310.86 440.402 310.86C439.813 310.86 439.365 310.86 438.972 310.804C438.58 310.748 438.271 310.692 438.047 310.607C437.823 310.551 437.654 310.439 437.57 310.299C437.486 310.187 437.43 310.019 437.43 309.878V282.654C437.43 281.841 437.654 281.224 438.075 280.804C438.495 280.383 439.056 280.159 439.785 280.159H443.823C444.552 280.159 445.168 280.215 445.673 280.327C446.178 280.439 446.626 280.635 447.019 280.916C447.383 281.196 447.72 281.561 447.944 282.009C448.196 282.458 448.421 283.019 448.617 283.692L455.178 301.888H455.262L462.047 283.72C462.243 283.047 462.467 282.486 462.72 282.037C462.972 281.589 463.252 281.196 463.589 280.916C463.897 280.635 464.29 280.439 464.71 280.299C465.159 280.187 465.664 280.131 466.253 280.131H470.43C470.851 280.131 471.215 280.187 471.524 280.299C471.832 280.383 472.084 280.551 472.281 280.776C472.477 280.972 472.617 281.224 472.729 281.561C472.841 281.869 472.869 282.206 472.869 282.626V309.85L472.953 309.907ZM415.253 286.019L411.019 299.028H419.57L415.281 286.019H415.253ZM429.215 308.449C429.383 309.009 429.524 309.458 429.552 309.794C429.608 310.131 429.552 310.383 429.383 310.551C429.215 310.692 428.907 310.804 428.458 310.86C428.038 310.888 427.421 310.916 426.636 310.916C425.851 310.916 425.206 310.916 424.785 310.916C424.337 310.916 424 310.832 423.748 310.776C423.524 310.72 423.355 310.607 423.271 310.495C423.187 310.383 423.103 310.215 423.047 309.991L421.056 303.85H409.589L407.682 309.822C407.626 310.047 407.542 310.243 407.43 310.383C407.346 310.523 407.178 310.635 406.925 310.748C406.701 310.832 406.393 310.888 405.972 310.916C405.552 310.944 405.019 310.972 404.318 310.972C403.589 310.972 403.028 310.972 402.608 310.916C402.215 310.86 401.907 310.748 401.767 310.579C401.626 310.411 401.57 310.131 401.598 309.794C401.626 309.486 401.767 309.037 401.963 308.477L411.327 281.364C411.411 281.112 411.524 280.888 411.664 280.72C411.776 280.551 411.972 280.439 412.252 280.355C412.533 280.271 412.897 280.215 413.402 280.187C413.879 280.187 414.524 280.187 415.309 280.187C416.234 280.187 416.991 280.187 417.524 280.187C418.084 280.187 418.505 280.271 418.813 280.355C419.122 280.439 419.346 280.551 419.486 280.748C419.598 280.916 419.738 281.14 419.823 281.449L429.243 308.533L429.215 308.449ZM395.374 308.308C395.374 308.757 395.374 309.15 395.318 309.458C395.29 309.766 395.234 310.019 395.15 310.215C395.066 310.411 394.981 310.551 394.841 310.635C394.729 310.72 394.589 310.748 394.449 310.748H379.168C378.664 310.748 378.243 310.607 377.879 310.299C377.542 309.991 377.346 309.486 377.346 308.813V282.178C377.346 281.477 377.514 280.972 377.879 280.692C378.243 280.383 378.664 280.243 379.168 280.243H394.365C394.365 280.243 394.617 280.243 394.757 280.355C394.841 280.439 394.953 280.579 395.038 280.776C395.094 280.972 395.178 281.224 395.206 281.533C395.234 281.841 395.262 282.234 395.262 282.71C395.262 283.159 395.262 283.523 395.206 283.832C395.178 284.14 395.122 284.393 395.038 284.561C394.953 284.757 394.869 284.897 394.757 284.981C394.645 285.065 394.505 285.093 394.365 285.093H383.514V292.523H392.654C392.795 292.523 392.935 292.551 393.047 292.664C393.159 292.748 393.271 292.86 393.355 293.056C393.439 293.224 393.495 293.477 393.524 293.785C393.552 294.093 393.58 294.458 393.58 294.907C393.58 295.355 393.58 295.748 393.524 296.056C393.495 296.336 393.439 296.589 393.355 296.757C393.271 296.953 393.187 297.065 393.047 297.15C392.935 297.234 392.823 297.262 392.654 297.262H383.514V305.869H394.449C394.589 305.869 394.729 305.897 394.841 305.981C394.953 306.065 395.066 306.206 395.15 306.402C395.234 306.57 395.29 306.822 395.318 307.131C395.346 307.439 395.374 307.832 395.374 308.28V308.308ZM360.804 289.215C360.804 288.206 360.58 287.336 360.131 286.664C359.654 285.963 358.925 285.458 357.888 285.206C357.58 285.121 357.215 285.065 356.823 285.037C356.43 284.981 355.869 284.953 355.168 284.953H352.393V293.617H355.561C356.458 293.617 357.215 293.505 357.86 293.308C358.505 293.112 359.066 292.804 359.514 292.411C359.963 292.047 360.271 291.57 360.495 291.037C360.72 290.505 360.832 289.888 360.832 289.243L360.804 289.215ZM368.795 309.963C368.795 310.131 368.795 310.271 368.71 310.383C368.654 310.495 368.514 310.607 368.262 310.692C368.038 310.748 367.673 310.804 367.224 310.832C366.776 310.86 366.159 310.888 365.374 310.888C364.701 310.888 364.196 310.888 363.804 310.832C363.411 310.832 363.103 310.748 362.879 310.664C362.654 310.579 362.486 310.467 362.402 310.327C362.318 310.187 362.234 310.019 362.178 309.85L359.43 303.009C359.094 302.224 358.785 301.551 358.477 300.935C358.168 300.346 357.804 299.841 357.439 299.449C357.047 299.056 356.598 298.748 356.094 298.523C355.589 298.327 355 298.215 354.355 298.215H352.421V309.878C352.421 310.019 352.393 310.187 352.281 310.299C352.196 310.411 352.028 310.523 351.776 310.607C351.552 310.692 351.215 310.748 350.851 310.804C350.458 310.832 349.953 310.86 349.365 310.86C348.776 310.86 348.271 310.86 347.851 310.804C347.458 310.748 347.15 310.692 346.925 310.607C346.701 310.551 346.533 310.439 346.421 310.299C346.337 310.187 346.281 310.019 346.281 309.878V282.121C346.281 281.421 346.449 280.916 346.813 280.635C347.178 280.327 347.598 280.187 348.103 280.187H355.981C356.795 280.187 357.439 280.187 357.944 280.215C358.477 280.215 358.925 280.271 359.374 280.327C360.58 280.495 361.701 280.804 362.682 281.224C363.664 281.645 364.505 282.206 365.178 282.878C365.851 283.579 366.383 284.364 366.748 285.318C367.112 286.271 367.281 287.336 367.281 288.542C367.281 289.551 367.168 290.477 366.888 291.318C366.636 292.159 366.243 292.916 365.738 293.589C365.234 294.234 364.617 294.822 363.888 295.299C363.131 295.776 362.29 296.168 361.365 296.477C361.813 296.701 362.262 296.953 362.654 297.29C363.047 297.598 363.439 297.991 363.776 298.439C364.14 298.888 364.477 299.393 364.785 299.981C365.094 300.542 365.402 301.215 365.71 301.916L368.29 307.972C368.514 308.561 368.682 309.009 368.738 309.29C368.823 309.57 368.851 309.766 368.851 309.935L368.795 309.963ZM338.57 282.738C338.57 283.187 338.57 283.579 338.514 283.916C338.486 284.224 338.43 284.505 338.346 284.701C338.262 284.897 338.178 285.037 338.038 285.121C337.925 285.206 337.785 285.262 337.645 285.262H330.047V309.907C330.047 310.047 330.019 310.215 329.907 310.327C329.823 310.439 329.626 310.551 329.402 310.635C329.178 310.72 328.841 310.776 328.449 310.832C328.056 310.86 327.552 310.888 326.963 310.888C326.374 310.888 325.869 310.888 325.477 310.832C325.084 310.776 324.748 310.72 324.524 310.635C324.299 310.579 324.131 310.467 324.019 310.327C323.935 310.215 323.879 310.047 323.879 309.907V285.262H316.281C316.14 285.262 316 285.206 315.888 285.121C315.776 285.037 315.692 284.897 315.608 284.701C315.552 284.505 315.495 284.252 315.439 283.916C315.411 283.579 315.383 283.187 315.383 282.738C315.383 282.29 315.383 281.869 315.439 281.533C315.495 281.196 315.524 280.944 315.608 280.748C315.692 280.551 315.776 280.411 315.888 280.327C316 280.243 316.14 280.215 316.281 280.215H337.701C337.701 280.215 337.981 280.215 338.094 280.327C338.206 280.411 338.318 280.551 338.402 280.748C338.486 280.944 338.542 281.196 338.57 281.533C338.598 281.869 338.626 282.262 338.626 282.738H338.57ZM310.084 301.607C310.084 303.206 309.776 304.607 309.187 305.841C308.598 307.047 307.785 308.056 306.776 308.869C305.738 309.682 304.561 310.271 303.187 310.692C301.813 311.084 300.355 311.308 298.785 311.308C297.748 311.308 296.767 311.224 295.869 311.056C294.972 310.888 294.159 310.664 293.486 310.411C292.785 310.159 292.224 309.907 291.748 309.626C291.271 309.346 290.935 309.121 290.738 308.897C290.542 308.701 290.402 308.393 290.29 308C290.206 307.607 290.178 307.047 290.178 306.346C290.178 305.841 290.178 305.449 290.234 305.112C290.234 304.804 290.29 304.523 290.374 304.299C290.43 304.103 290.542 303.963 290.654 303.878C290.767 303.794 290.907 303.766 291.075 303.766C291.299 303.766 291.608 303.878 292 304.159C292.393 304.411 292.925 304.72 293.542 305.028C294.187 305.336 294.916 305.645 295.813 305.897C296.682 306.178 297.692 306.29 298.841 306.29C299.598 306.29 300.271 306.206 300.86 306.037C301.477 305.841 301.981 305.589 302.402 305.28C302.823 304.944 303.131 304.551 303.355 304.047C303.58 303.57 303.692 303.009 303.692 302.421C303.692 301.72 303.524 301.131 303.131 300.626C302.767 300.121 302.262 299.701 301.645 299.308C301.056 298.916 300.355 298.551 299.598 298.215C298.841 297.878 298.028 297.514 297.215 297.121C296.374 296.757 295.589 296.308 294.832 295.832C294.047 295.355 293.374 294.794 292.757 294.121C292.14 293.449 291.664 292.664 291.271 291.738C290.907 290.813 290.71 289.72 290.71 288.458C290.71 287 290.963 285.71 291.524 284.617C292.056 283.495 292.785 282.598 293.71 281.869C294.636 281.14 295.701 280.579 296.963 280.215C298.196 279.85 299.542 279.682 300.944 279.682C301.645 279.682 302.374 279.738 303.103 279.85C303.832 279.963 304.505 280.103 305.122 280.299C305.738 280.495 306.299 280.72 306.776 280.944C307.252 281.196 307.589 281.393 307.729 281.533C307.869 281.673 307.981 281.813 308.038 281.925C308.094 282.037 308.122 282.178 308.178 282.374C308.206 282.542 308.234 282.766 308.262 283.047C308.262 283.327 308.262 283.664 308.262 284.084C308.262 284.533 308.262 284.925 308.262 285.234C308.262 285.542 308.206 285.822 308.15 286.019C308.094 286.215 308.01 286.355 307.925 286.467C307.813 286.551 307.701 286.607 307.505 286.607C307.337 286.607 307.056 286.495 306.664 286.271C306.299 286.075 305.823 285.822 305.29 285.542C304.729 285.29 304.112 285.037 303.383 284.841C302.654 284.645 301.869 284.533 301 284.533C300.327 284.533 299.738 284.617 299.234 284.785C298.729 284.953 298.309 285.178 298 285.486C297.664 285.766 297.411 286.103 297.243 286.523C297.075 286.944 296.991 287.364 296.991 287.813C296.991 288.486 297.159 289.075 297.552 289.579C297.916 290.084 298.421 290.533 299.038 290.897C299.654 291.29 300.355 291.654 301.14 291.991C301.925 292.327 302.71 292.692 303.552 293.084C304.365 293.449 305.178 293.897 305.935 294.374C306.72 294.85 307.421 295.439 308.038 296.084C308.654 296.757 309.131 297.542 309.524 298.467C309.916 299.364 310.084 300.43 310.084 301.664V301.607Z" fill="#ED0000"/>
</g>
</svg>
