<svg width="500" height="500" viewBox="0 0 500 500" fill="none" xmlns="http://www.w3.org/2000/svg">
<mask id="mask0_2_10" style="mask-type:luminance" maskUnits="userSpaceOnUse" x="25" y="63" width="450" height="374">
<path d="M475 63H25V436.235H475V63Z" fill="white"/>
</mask>
<g mask="url(#mask0_2_10)">
<path d="M215.835 223.482L288.4 221.541C294.612 207.565 306.259 172.129 308.659 157.059C311.447 139.447 316.353 121.271 308.129 104.294C302.659 92.9647 292.565 85.7294 281.235 81.9882C277.141 80.6118 272.8 79.5176 268.353 78.7412C230.306 71.9294 183.188 86.4706 188.129 134.541C188.906 142.129 190.671 149.541 191.871 157.094C194.271 172.2 209.659 209.541 215.871 223.518" fill="#F4F4F4"/>
<path d="M215.835 223.482L288.4 221.541C294.612 207.565 306.259 172.129 308.659 157.059C311.447 139.447 316.353 121.271 308.129 104.294C302.659 92.9647 292.565 85.7294 281.235 81.9882C277.141 80.6118 272.8 79.5176 268.353 78.7412C230.306 71.9294 183.188 86.4706 188.129 134.541C188.906 142.129 190.671 149.541 191.871 157.094C194.271 172.2 209.659 209.541 215.871 223.518L215.835 223.482Z" stroke="#181821" stroke-width="1.66" stroke-linecap="round" stroke-linejoin="round"/>
<path d="M285.612 286.059H215.835V210.035H285.612V286.059Z" fill="#F4F4F4"/>
<path d="M285.612 210.035H215.835V286.059H285.612V210.035Z" stroke="#181821" stroke-width="1.66" stroke-linecap="round" stroke-linejoin="round"/>
<path d="M352.6 380.224V433.376H395.447C395.447 433.376 391.247 361.835 391.247 326.718C391.247 291.6 355.424 263.365 355.424 263.365L289.035 237.953V227.365L250.671 278.188L211.035 227.365V237.953L144.647 263.365C144.647 263.365 108.824 291.565 108.824 326.718C108.824 361.871 104.624 433.376 104.624 433.376H147.471V380.224L158.271 433.376H341.835L352.635 380.224" fill="#F4F4F4"/>
<path d="M352.6 380.224V433.376H395.447C395.447 433.376 391.247 361.835 391.247 326.718C391.247 291.6 355.424 263.365 355.424 263.365L289.035 237.953V227.365L250.671 278.188L211.035 227.365V237.953L144.647 263.365C144.647 263.365 108.824 291.565 108.824 326.718C108.824 361.871 104.624 433.376 104.624 433.376H147.471V380.224L158.271 433.376H341.835L352.635 380.224H352.6Z" stroke="#181821" stroke-width="1.66" stroke-linecap="round" stroke-linejoin="round"/>
<path d="M303.435 140.682C302.941 140.682 302.412 140.718 301.953 140.788C297.859 108.776 276.506 91.3765 250.741 91.3765C224.976 91.3765 203.588 108.776 199.494 140.788C199 140.718 198.506 140.682 197.976 140.682C190.565 140.682 184.565 148.165 184.565 157.412C184.565 166.659 190.565 174.141 197.976 174.141C199.071 174.141 200.129 173.965 201.153 173.647C207.788 202.518 227.447 223.447 250.706 223.447C273.965 223.447 293.624 202.518 300.259 173.647C301.282 173.965 302.341 174.141 303.435 174.141C310.847 174.141 316.847 166.659 316.847 157.412C316.847 148.165 310.847 140.682 303.435 140.682Z" fill="#F4F4F4"/>
<path d="M303.435 140.682C302.941 140.682 302.412 140.718 301.953 140.788C297.859 108.776 276.506 91.3765 250.741 91.3765C224.976 91.3765 203.588 108.776 199.494 140.788C199 140.718 198.506 140.682 197.976 140.682C190.565 140.682 184.565 148.165 184.565 157.412C184.565 166.659 190.565 174.141 197.976 174.141C199.071 174.141 200.129 173.965 201.153 173.647C207.788 202.518 227.447 223.447 250.706 223.447C273.965 223.447 293.624 202.518 300.259 173.647C301.282 173.965 302.341 174.141 303.435 174.141C310.847 174.141 316.847 166.659 316.847 157.412C316.847 148.165 310.847 140.682 303.435 140.682Z" stroke="#181821" stroke-width="1.66" stroke-linecap="round" stroke-linejoin="round"/>
<path d="M192.647 115.871C192.647 115.871 246.329 136.624 262.459 115.871L251.165 100.871C251.165 100.871 308.553 128.612 311.835 112.976C311.835 112.976 310.212 80.6824 274.776 72.6353C239.341 64.5882 174.894 80.1176 192.612 115.871" fill="#F4F4F4"/>
<path d="M192.647 115.871C192.647 115.871 246.329 136.624 262.459 115.871L251.165 100.871C251.165 100.871 308.553 128.612 311.835 112.976C311.835 112.976 310.212 80.6824 274.776 72.6353C239.341 64.5882 174.894 80.1176 192.612 115.871H192.647Z" stroke="#181821" stroke-width="1.66" stroke-linecap="round" stroke-linejoin="round"/>
<path d="M28.7765 208.059C28.7765 190.165 82.0353 174.776 158.553 167.859V336.071C158.553 336.071 28.7765 299.365 28.7765 208.059Z" fill="#F4F4F4"/>
<path d="M28.7765 208.059C28.7765 190.165 82.0353 174.776 158.553 167.859V336.071C158.553 336.071 28.7765 299.365 28.7765 208.059Z" stroke="#181821" stroke-width="1.66" stroke-linecap="round" stroke-linejoin="round"/>
<path d="M28.7765 240.529C28.7765 227.188 68.5176 215.682 125.624 210.529V336.106C125.624 336.106 28.7765 308.682 28.7765 240.529Z" fill="#F4F4F4"/>
<path d="M28.7765 240.529C28.7765 227.188 68.5176 215.682 125.624 210.529V336.106C125.624 336.106 28.7765 308.682 28.7765 240.529Z" stroke="#181821" stroke-width="1.66" stroke-linecap="round" stroke-linejoin="round"/>
<path d="M339.965 336.071V167.859C416.447 174.741 469.741 190.165 469.741 208.059C469.741 299.365 339.965 336.071 339.965 336.071Z" fill="#F4F4F4"/>
<path d="M339.965 336.071V167.859C416.447 174.741 469.741 190.165 469.741 208.059C469.741 299.365 339.965 336.071 339.965 336.071Z" stroke="#181821" stroke-width="1.66" stroke-linecap="round" stroke-linejoin="round"/>
<path d="M351.823 169.235C420.965 176.647 468.012 191.259 468.012 208.059" stroke="#181821" stroke-width="1.66" stroke-linecap="round" stroke-linejoin="round"/>
<path d="M468.012 208.059C468.012 232.376 369.682 252.106 248.376 252.106C127.071 252.106 28.7765 232.376 28.7765 208.059V307.518H29.0941C35.3059 339.318 131.8 364.588 249.965 364.588C368.129 364.588 464.659 339.318 470.871 307.518H471.188V208.059H468.012Z" fill="#F4F4F4"/>
<path d="M468.012 208.059C468.012 232.376 369.682 252.106 248.376 252.106C127.071 252.106 28.7765 232.376 28.7765 208.059V307.518H29.0941C35.3059 339.318 131.8 364.588 249.965 364.588C368.129 364.588 464.659 339.318 470.871 307.518H471.188V208.059H468.012Z" stroke="#181821" stroke-width="1.66" stroke-linecap="round" stroke-linejoin="round"/>
<path d="M406.671 253.447C406.671 253.447 455.765 247.165 466.353 231.212" stroke="#181821" stroke-width="1.66" stroke-linecap="round" stroke-linejoin="round"/>
<path d="M30.1882 237.847V299.788C35.0941 309.459 53.3765 317.965 79.7765 323.859V255.459C53.4118 251.153 35.1294 244.941 30.1882 237.847Z" fill="#F4F4F4"/>
<path d="M30.1882 237.847V299.788C35.0941 309.459 53.3765 317.965 79.7765 323.859V255.459C53.4118 251.153 35.1294 244.941 30.1882 237.847Z" stroke="#181821" stroke-width="1.66" stroke-linecap="round" stroke-linejoin="round"/>
<path d="M463.141 243.635V305.541C458.2 315.212 439.953 323.718 413.553 329.612V261.247C439.918 256.941 458.2 250.729 463.141 243.635Z" fill="#F4F4F4"/>
<path d="M463.141 243.635V305.541C458.2 315.212 439.953 323.718 413.553 329.612V261.247C439.918 256.941 458.2 250.729 463.141 243.635Z" stroke="#181821" stroke-width="1.66" stroke-linecap="round" stroke-linejoin="round"/>
<path d="M314.871 349.271H185.129V271.906H314.871V349.271Z" fill="#F4F4F4"/>
<path d="M314.871 271.906H185.129V349.271H314.871V271.906Z" stroke="#181821" stroke-width="1.66" stroke-linecap="round" stroke-linejoin="round"/>
<path d="M104.729 332.506C109.565 333.635 114.541 334.624 119.376 335.965V263.047C110.765 261.635 102.188 260.047 93.647 258.176V329.612C97.3176 330.635 100.988 331.588 104.729 332.471" fill="#F4F4F4"/>
<path d="M104.729 332.506C109.565 333.635 114.541 334.624 119.376 335.965V263.047C110.765 261.635 102.188 260.047 93.647 258.176V329.612C97.3176 330.635 100.988 331.588 104.729 332.471V332.506Z" stroke="#181821" stroke-width="1.66" stroke-linecap="round" stroke-linejoin="round"/>
<path d="M146.659 342.247C151.494 343.376 156.471 344.365 161.306 345.706V272.788C152.694 271.376 144.118 269.788 135.576 267.918V339.353C139.247 340.376 142.918 341.329 146.659 342.212" fill="#F4F4F4"/>
<path d="M146.659 342.247C151.494 343.376 156.471 344.365 161.306 345.706V272.788C152.694 271.376 144.118 269.788 135.576 267.918V339.353C139.247 340.376 142.918 341.329 146.659 342.212V342.247Z" stroke="#181821" stroke-width="1.66" stroke-linecap="round" stroke-linejoin="round"/>
<path d="M404.871 295.412L326.341 302.929V279.424L404.871 271.906V295.412Z" fill="#F4F4F4"/>
<path d="M404.871 295.412L326.341 302.929V279.424L404.871 271.906V295.412Z" stroke="#181821" stroke-width="1.66" stroke-linecap="round" stroke-linejoin="round"/>
<path d="M404.871 329.965L326.341 337.482V314.012L404.871 306.494V329.965Z" fill="#F4F4F4"/>
<path d="M404.871 329.965L326.341 337.482V314.012L404.871 306.494V329.965Z" stroke="#181821" stroke-width="1.66" stroke-linecap="round" stroke-linejoin="round"/>
</g>
</svg>
