<svg width="500" height="500" viewBox="0 0 500 500" fill="none" xmlns="http://www.w3.org/2000/svg">
<g clip-path="url(#clip0_2_2)">
<mask id="mask0_2_2" style="mask-type:luminance" maskUnits="userSpaceOnUse" x="36" y="25" width="428" height="450">
<path d="M463.66 25H36V475H463.66V25Z" fill="white"/>
</mask>
<g mask="url(#mask0_2_2)">
<path d="M256.766 157.936C207.745 159.809 168.426 200.404 168.426 249.979C168.426 299.553 207.745 340.149 256.766 342.021V467.638C252.809 467.553 248.809 467.383 244.894 467.128V453.979C244.894 442.362 236.638 432.234 225.234 429.979L224.085 429.766C212.681 427.468 201.149 433.638 196.723 444.404L191.702 456.617C181.957 453.34 172.383 449.383 163.149 444.745L167.957 433.085C172.511 422.021 168.638 409.17 158.723 402.489C148.766 395.809 135.404 397.128 126.936 405.596L118.043 414.489C110.255 407.723 102.936 400.362 96.1702 392.574L105.021 383.681C113.489 375.213 114.809 361.809 108.128 351.809C101.489 341.851 88.6383 337.979 77.617 342.574L65.9574 347.426C61.3191 338.191 57.3617 328.617 54.1277 318.787L65.7447 313.979C76.8085 309.383 83.1489 297.511 80.8085 285.766C78.4681 274.021 68.0851 265.468 56.1277 265.468H43.6596C43.3191 260.319 43.1064 255.128 43.1064 249.979C43.1064 244.83 43.2766 239.638 43.6596 234.489H56.2128C68.1702 234.489 78.5532 225.979 80.8511 214.234C83.1915 202.447 76.8511 190.574 65.7872 185.979L54.1702 181.17C57.4043 171.383 61.4043 161.766 66 152.532L77.617 157.34C88.6383 161.936 101.489 158.021 108.128 148.064C114.766 138.106 113.489 124.702 105.021 116.234L96.1277 107.34C102.851 99.5532 110.213 92.1915 117.957 85.4255L126.723 94.1915C135.277 102.745 148.766 104.064 158.766 97.3404C168.596 90.7447 172.468 78.0213 167.915 67.0425L163.021 55.1702C172.255 50.5319 181.83 46.5745 191.574 43.2979L196.383 54.9574C200.979 66.0638 212.809 72.4043 224.553 70.0638C236.255 67.7234 244.766 57.3404 244.766 45.383V32.7872C248.723 32.4894 252.681 32.3617 256.638 32.2766V157.894L256.766 157.936ZM260.298 25.1277C253.872 25.1277 247.362 25.4255 240.979 25.9362C239.149 26.1064 237.702 27.6383 237.702 29.5106V45.4255C237.702 53.9787 231.617 61.4255 223.234 63.1277C214.809 64.7872 206.298 60.2766 203.021 52.3191L196.936 37.6383C196.213 35.9362 194.34 35.0425 192.553 35.5957C180.298 39.4681 168.298 44.4894 156.851 50.4468C155.191 51.2979 154.511 53.2553 155.191 55L161.362 69.8936C164.596 77.7234 161.83 86.7872 154.809 91.5106C147.574 96.3617 137.915 95.4255 131.745 89.2553L120.681 78.1489C119.362 76.8298 117.277 76.7447 115.872 77.9362C106.043 86.234 96.8511 95.4681 88.5532 105.34C87.3617 106.745 87.4468 108.872 88.766 110.149L100 121.383C106.043 127.468 106.979 137.043 102.213 144.191C97.4468 151.34 88.2553 154.106 80.3404 150.83L65.6596 144.745C63.9574 144.021 62 144.745 61.1489 146.404C55.1915 157.851 50.2128 169.894 46.3404 182.191C45.7872 183.979 46.6809 185.851 48.383 186.574L63.0213 192.66C70.9362 195.936 75.4894 204.489 73.8298 212.915C72.1702 221.34 64.7234 227.468 56.1702 227.468H40.383C38.5106 227.468 36.9787 228.872 36.8511 230.745C36.2979 237.128 36.0426 243.638 36.0426 250.106C36.0426 256.574 36.3404 263.043 36.8511 269.468C37.0213 271.298 38.5532 272.745 40.383 272.745H56.2128C64.766 272.745 72.2128 278.872 73.9149 287.298C75.5745 295.723 71.0638 304.234 63.1489 307.553L48.4681 313.638C46.766 314.362 45.8723 316.234 46.4255 318.021C50.2979 330.319 55.2766 342.362 61.234 353.808C62.0851 355.468 64.0426 356.149 65.7447 355.468L80.4255 349.383C88.3404 346.106 97.5319 348.872 102.298 356.021C107.064 363.17 106.128 372.787 100.085 378.872L88.8936 390.106C87.5745 391.426 87.4894 393.511 88.6808 394.915C96.9787 404.787 106.17 413.979 116 422.319C117.404 423.511 119.489 423.426 120.809 422.106L132 410.872C138.085 404.787 147.66 403.851 154.766 408.617C161.872 413.383 164.638 422.617 161.362 430.532L155.277 445.255C154.553 446.957 155.277 448.915 156.936 449.809C168.383 455.766 180.383 460.745 192.638 464.66C194.426 465.213 196.298 464.319 197.021 462.617L203.319 447.383C206.468 439.766 214.638 435.383 222.723 437L223.872 437.213C231.957 438.83 237.787 445.979 237.787 454.234V470.702C237.787 472.574 239.191 474.106 241.064 474.277C247.447 474.83 253.915 475.085 260.383 475.085C262.34 475.085 263.957 473.468 263.957 471.511V338.787C263.957 336.83 262.383 335.213 260.383 335.213C213.66 335.213 175.617 297.085 175.617 250.234C175.617 203.383 213.66 165.255 260.383 165.255C262.34 165.255 263.957 163.638 263.957 161.681V28.7021C263.957 26.7447 262.383 25.1277 260.383 25.1277H260.298Z" fill="black"/>
<path d="M348.851 378.319C341.915 381.383 337.149 387.638 335.915 394.872H331.106V381.426C331.106 373.936 324.723 367.851 316.851 367.851H316.638V336.702C316.638 324.021 323.574 312.021 334.723 305.34C347.404 297.766 363.745 285.043 369.745 267.383C376.085 248.787 374.298 229.213 365.106 216.319C358.213 206.66 347.574 201.34 335.149 201.34C317.915 201.34 309.234 209.596 305.362 214.957C298.681 208.489 290.553 202.66 279.915 201.553V32.2766C377.617 34.1915 456.553 114.447 456.553 212.872C456.553 284.532 414.255 349.468 348.809 378.319H348.851ZM313.66 467.681H279.957V449.255H335.277C333.574 459.681 324.511 467.681 313.617 467.681H313.66ZM324.043 394.872H280V374.957H316.894C320.851 374.957 324.043 377.851 324.043 381.426V394.872ZM335.617 418.489H279.957V401.979H335.617V418.489ZM280 442.106V425.596H335.66V442.106H280ZM288.043 240.489C288.043 253.34 296.17 263.766 306.17 263.766C316.17 263.766 324.298 253.34 324.298 240.489C324.298 230.149 319.021 221.426 311.787 218.362C314.936 214.319 321.83 208.447 335.234 208.447C345.447 208.447 353.787 212.617 359.404 220.447C367.277 231.468 368.681 248.574 363.064 265.043C357.745 280.66 342.766 292.234 331.106 299.213C317.83 307.17 309.574 321.511 309.574 336.702V367.851H280V208.745C287.702 209.766 293.872 213.894 299.319 219C292.723 222.489 288.085 230.83 288.085 240.532L288.043 240.489ZM306.17 224.319C312.128 224.319 317.192 231.723 317.192 240.447C317.192 249.17 312.17 256.574 306.17 256.574C300.17 256.574 295.149 249.17 295.149 240.447C295.149 231.723 300.17 224.319 306.17 224.319ZM276.426 25.1277C274.468 25.1277 272.851 26.7447 272.851 28.7021V471.255C272.851 473.213 274.426 474.83 276.426 474.83H313.66C329.702 474.83 342.723 461.766 342.723 445.681V398.404C342.723 392.574 346.255 387.213 351.702 384.83C419.745 354.83 463.702 287.34 463.702 212.872C463.745 109.34 379.702 25.1277 276.426 25.1277Z" fill="black"/>
</g>
</g>
<defs>
<clipPath id="clip0_2_2">
<rect width="427.745" height="450" fill="white" transform="translate(36 25)"/>
</clipPath>
</defs>
</svg>
