<svg width="500" height="500" viewBox="0 0 500 500" fill="none" xmlns="http://www.w3.org/2000/svg">
<g clip-path="url(#clip0_2_57)">
<mask id="mask0_2_57" style="mask-type:luminance" maskUnits="userSpaceOnUse" x="25" y="25" width="450" height="450">
<path d="M474.872 25H25V475H474.872V25Z" fill="white"/>
</mask>
<g mask="url(#mask0_2_57)">
<path fill-rule="evenodd" clip-rule="evenodd" d="M175.17 94.234C137.383 101.085 144.957 131.043 152.149 160.489C122.447 163.213 123.766 237.638 156.192 233.426C151.34 218.234 153.723 181.298 153.213 165.128L153.638 166.957C166.106 165.128 198.192 137.511 198.192 137.511C236.957 166.617 275 161.681 275 161.681C254.702 146.66 257.511 131.553 257.511 131.553C283 134.106 340.106 163.894 346.021 166.957C367.383 121.255 336.787 52.3617 255 49.1277C175.979 46.5745 193.851 79.9787 175.213 94.1915L175.17 94.234Z" fill="#C6D8FB"/>
<path fill-rule="evenodd" clip-rule="evenodd" d="M248.915 347.511L232.064 364.106C232.319 366.575 234.532 386.957 234.787 389.936H264.234C264.489 387.809 266.702 366.489 266.872 365.085L248.957 347.511H248.915Z" fill="#C6D8FB"/>
<path fill-rule="evenodd" clip-rule="evenodd" d="M264.191 389.936H234.659L230.191 450.064H268.702L264.191 389.936Z" fill="#C6D8FB"/>
<path d="M112.362 398.66C109.894 398.66 107.894 396.66 107.894 394.192V372.234C107.894 344.106 130.745 321.17 158.957 321.17H174.617C180.489 321.17 180.489 330.149 174.617 330.234H158.957C135.851 330.234 116.957 349.043 116.957 372.234V394.192C116.957 396.66 114.957 398.66 112.404 398.66H112.362ZM386.532 398.66C384.064 398.66 382.064 396.66 382.064 394.192V372.234C382.064 349.128 363.255 330.234 340.064 330.234H323.298C317.426 330.234 317.426 321.17 323.298 321.17H339.979C368.106 321.17 391.043 344.021 391.043 372.234V394.192C391.043 396.66 389.043 398.66 386.574 398.66H386.532ZM359.468 454.532H139.426C118.149 454.362 105.511 435.809 107.894 415.596C107.979 409.723 116.872 409.723 116.957 415.596V422.957C116.957 435.34 127.043 445.468 139.468 445.468H359.511C371.894 445.468 382.021 435.383 382.021 422.957V415.596C381.936 409.723 391.085 409.723 391.085 415.596C393.383 435.809 380.787 454.362 359.553 454.532H359.468Z" fill="black"/>
<path d="M345.681 238.277C342.149 238.532 337.34 236.957 338.319 232.574C338.83 230.106 341.298 228.532 343.681 229.043C368.447 231.766 370.404 170.362 347.808 165.255C345.34 164.745 343.851 162.362 344.362 159.894C344.872 157.426 347.34 155.936 349.723 156.447C381.808 163.213 379.681 237.723 345.681 238.277Z" fill="black"/>
<path d="M153.213 238.277C118.064 237.766 117.17 158.745 151.808 155.936C154.277 155.766 156.447 157.596 156.66 160.064C156.872 162.532 155 164.702 152.532 164.915C128.447 167.638 130.106 231.596 155.34 228.957C157.808 228.447 160.191 230.021 160.702 232.489C161.596 236.957 156.83 238.532 153.213 238.277Z" fill="black"/>
<path d="M209.298 314.362C206.83 314.362 204.83 312.362 204.83 309.894V297.17C204.83 294.702 206.83 292.702 209.298 292.702C211.766 292.702 213.766 294.702 213.766 297.17V309.894C213.851 312.362 211.851 314.362 209.298 314.362ZM289.596 314.915C287.128 314.915 285.128 312.915 285.128 310.447V297.17C285.128 294.702 287.17 292.702 289.596 292.702C292.021 292.702 294.064 294.702 294.064 297.17V310.447C294.064 312.915 292.064 314.915 289.596 314.915ZM266.489 372.915C259.979 372.106 261.042 364.745 266.745 363.17C268.957 361.936 271.681 362.745 272.915 364.915C275.213 369.213 270.191 372.574 266.489 372.915ZM232.404 372.915C228.532 372.404 222.745 369.043 225.383 364.489C227.511 360.787 231.553 362.574 234.362 364.319C238.745 366.149 237.085 373.128 232.447 372.915H232.404Z" fill="black"/>
<path d="M249.426 310.532C193.894 310.532 148.702 265.383 148.702 209.809V165.17C148.787 159.298 157.681 159.298 157.766 165.17V209.723C157.766 260.234 198.872 301.383 249.426 301.383C299.979 301.383 341.085 260.277 341.085 209.723V166.745C341.085 160.872 350.149 160.872 350.149 166.745V209.723C350.149 265.255 305 310.532 249.426 310.532Z" fill="black"/>
<path d="M202.064 212.106C199.596 212.106 197.596 210.106 197.596 207.638V189.638C197.596 187.17 199.596 185.17 202.064 185.17C204.532 185.17 206.532 187.17 206.532 189.638V207.638C206.617 210.106 204.617 212.106 202.064 212.106Z" fill="black"/>
<path d="M296.787 212.106C294.319 212.106 292.319 210.106 292.319 207.638V189.638C292.319 187.17 294.319 185.17 296.787 185.17C299.255 185.17 301.255 187.17 301.255 189.638V207.638C301.255 210.106 299.255 212.106 296.787 212.106Z" fill="black"/>
<path d="M246.447 53.4681C200.66 53.4681 194.957 67.1702 189.426 80.3617C186.787 86.5319 184.149 92.9149 177.894 97.766C138.787 106.447 151.808 131.255 156.532 161.383C166.362 157.255 184.66 143.213 195.213 134.149C196.787 132.745 199.17 132.66 200.83 133.979C225.255 152.362 249.596 156.574 263.298 157.34C250.106 142.234 250.191 126.574 257.851 127.043C280.957 129.255 329.043 153.213 343.808 160.787C361.298 107.085 321.128 52.3617 246.447 53.4681ZM153.638 171.511C149.851 171.596 148.106 166.872 149 163.681C148.404 163.085 148.021 162.362 147.766 161.468C143.808 143.723 136.957 120.447 146.617 105.851C151.553 98.1064 160.234 92.9149 173.17 90.0213C177.043 86.7872 178.957 82.1915 181.17 76.9149C187.596 61.6383 195.511 42.8298 255.17 44.5745C309.043 46.3192 334.362 75.3404 344.532 92.4468C359.213 116.957 361.298 146.234 350.064 168.915C349 171.128 346.106 172.149 343.894 170.915C343.298 170.66 289.596 142.277 262.149 136.745C263.043 141.596 266.362 149.681 277.596 158.021C279.085 159.085 279.723 161 279.255 162.787C279.511 169.553 236.532 170.064 198.319 143.17C189.638 150.447 165.638 170.234 153.596 171.468L153.638 171.511Z" fill="black"/>
<path d="M235.043 445.596H263.766L259.979 394.532H238.872L235 445.596H235.043ZM268.702 454.532H230.191C227.638 454.617 225.426 452.234 225.723 449.681L230.277 389.553C230.447 387.17 232.404 385.34 234.745 385.34H264.191C266.574 385.34 268.489 387.17 268.66 389.553L273.128 449.681C273.383 452.234 271.213 454.617 268.66 454.532H268.702Z" fill="black"/>
<path d="M264.191 394.532H234.745C232.447 394.532 230.532 392.787 230.277 390.489L227.553 364.66C226.957 358.787 235.894 357.809 236.532 363.681L238.83 385.468H260.191L262.404 364.66C263 358.787 271.979 359.723 271.383 365.638L268.745 390.489C268.489 392.787 266.532 394.532 264.277 394.532H264.191Z" fill="black"/>
<path d="M181.596 327.383L217.085 372.362L242.404 347.511L208.404 315.17L181.596 327.383ZM216.66 383.638C215.255 383.638 213.936 383.043 213.128 381.894L170.957 328.447C170.064 327.383 169.808 325.894 170.064 324.574C170.404 323.255 171.298 322.106 172.617 321.511L207.426 305.681C209.085 304.872 211.128 305.255 212.447 306.574L251.979 344.192C253.808 345.851 253.808 349.043 252.064 350.702L219.894 382.319C219 383.213 217.894 383.638 216.66 383.638Z" fill="black"/>
<path d="M255.426 347.511L280.745 372.362L316.234 327.383L289.426 315.17L255.426 347.511ZM281.085 383.638C279.936 383.638 278.787 383.213 277.936 382.319L245.766 350.702C243.936 349.043 244.021 345.851 245.851 344.192L285.383 306.574C286.702 305.255 288.702 305 290.404 305.681L325.213 321.511C326.447 322.106 327.426 323.17 327.766 324.574C328.106 325.894 327.766 327.383 326.872 328.447L284.702 381.894C283.808 383.043 282.489 383.638 281.085 383.638Z" fill="black"/>
<path d="M249.426 255.17C237.638 255.17 228.787 249.468 228.787 241.809C228.787 235.936 237.851 235.936 237.851 241.809C237.851 242.957 241.894 246.106 249.553 246.106C257.213 246.106 261.255 242.957 261.255 241.809C261.255 235.936 270.319 235.936 270.319 241.809C270.149 249.468 261.255 255.17 249.511 255.17H249.426Z" fill="black"/>
<path d="M34.1489 464.83H91.1702L77.2127 450.872C75.4681 449.213 75.4681 446.106 77.2127 444.447L116.745 404.915L94.0638 382.234L54.5319 421.766C53.6383 422.66 52.4893 423.085 51.3829 423.085C48.8298 424.064 37.851 410.872 34.234 407.809V464.83H34.1489ZM102.064 473.894H29.6383C27.1702 473.894 25.1702 471.894 25.1702 469.426V397C25.0851 393.128 30.1915 390.957 32.9149 393.851L51.4681 412.404L91 372.872C92.7446 371.128 95.6383 371.128 97.4255 372.872L126.532 401.979C128.277 403.723 128.277 406.617 126.532 408.404L87 447.936L105.553 466.404C108.191 468.872 105.979 474.064 102.106 473.979L102.064 473.894Z" fill="black"/>
<path d="M407.723 464.83H464.745V407.809L450.787 421.766C449.128 423.426 446.149 423.426 444.362 421.766L404.83 382.234L382.149 404.915L421.681 444.447C423.426 446.106 423.426 449.213 421.681 450.872L407.723 464.83ZM469.213 473.894H396.787C392.915 473.979 390.745 468.872 393.638 466.149L412.192 447.681L372.66 408.149C370.915 406.404 370.915 403.511 372.66 401.723L401.766 372.617C403.511 370.872 406.404 370.872 408.192 372.617L447.723 412.149L466.277 393.596C469 390.787 474.106 392.872 474.021 396.745V469.17C473.851 471.808 471.809 473.809 469.255 473.809L469.213 473.894Z" fill="black"/>
<path d="M51.2553 75.9787C52.4042 75.9787 53.5532 76.4043 54.4042 77.2979L93.9361 116.83L116.702 94.1489L77.2127 54.617C75.4681 52.8724 75.4681 49.9787 77.2127 48.1915L91.1702 34.2341H34.1489V91.2553C37.851 88.1064 48.7447 75 51.2978 75.9787H51.2553ZM94.0638 127.723C92.9149 127.723 91.7659 127.298 90.9149 126.404L51.3829 86.8724L32.8298 105.34C30.1915 108.149 25 106.064 25.0851 102.191V29.766C25.0851 27.2128 27.1276 25.1702 29.6383 25.1702H102.064C105.936 25.0851 108.106 30.1915 105.213 32.9149L86.7447 51.383L126.277 90.9149C128.021 92.6596 128.021 95.5532 126.277 97.3404L97.1702 126.447C96.2766 127.34 95.1702 127.766 94.0212 127.766L94.0638 127.723Z" fill="black"/>
<path d="M382.149 94.1489L404.83 116.83L444.362 77.2979C446.106 75.5532 449 75.5532 450.787 77.2979L464.745 91.2553V34.234H407.723L421.681 48.1915C423.426 49.9362 423.426 52.8298 421.681 54.617L382.149 94.1489ZM404.787 127.723C403.638 127.723 402.489 127.298 401.638 126.404L372.532 97.2979C370.787 95.5532 370.787 92.6596 372.532 90.8723L412.064 51.3404L393.596 32.8723C390.787 30.234 392.872 25.0426 396.745 25.1277H469.17C471.638 25.1277 473.638 27.1277 473.638 29.5958V102.021C473.723 105.894 468.617 108.064 465.894 105.17L447.34 86.617L407.808 126.149C407 127.213 405.894 127.638 404.745 127.638L404.787 127.723Z" fill="black"/>
</g>
</g>
<defs>
<clipPath id="clip0_2_57">
<rect width="449.872" height="450" fill="white" transform="translate(25 25)"/>
</clipPath>
</defs>
</svg>
