<svg width="500" height="500" viewBox="0 0 500 500" fill="none" xmlns="http://www.w3.org/2000/svg">
<rect x="25" y="160" width="450" height="196" rx="98" fill="#1E3443"/>
<path d="M116.189 269.312C116.189 268.433 116.058 267.649 115.797 266.96C115.535 266.247 115.06 265.594 114.371 265C113.682 264.405 112.708 263.811 111.448 263.217C110.189 262.599 108.537 261.97 106.494 261.328C104.165 260.568 101.943 259.712 99.8281 258.762C97.737 257.787 95.8716 256.659 94.2319 255.375C92.5923 254.092 91.2972 252.595 90.3467 250.884C89.4199 249.173 88.9565 247.177 88.9565 244.896C88.9565 242.686 89.4437 240.69 90.418 238.908C91.3923 237.125 92.7586 235.605 94.5171 234.345C96.2756 233.062 98.3429 232.088 100.719 231.422C103.096 230.733 105.709 230.389 108.561 230.389C112.363 230.389 115.702 231.066 118.577 232.42C121.476 233.751 123.734 235.628 125.35 238.052C126.965 240.452 127.773 243.244 127.773 246.429H116.225C116.225 245.027 115.928 243.791 115.333 242.722C114.763 241.629 113.884 240.773 112.696 240.155C111.531 239.537 110.07 239.229 108.312 239.229C106.601 239.229 105.163 239.49 103.999 240.013C102.858 240.512 101.991 241.201 101.396 242.08C100.826 242.959 100.541 243.922 100.541 244.967C100.541 245.799 100.755 246.559 101.183 247.249C101.634 247.914 102.276 248.544 103.107 249.138C103.963 249.708 105.008 250.255 106.244 250.777C107.48 251.3 108.894 251.799 110.486 252.274C113.266 253.154 115.726 254.128 117.864 255.197C120.027 256.267 121.845 257.479 123.318 258.833C124.791 260.188 125.896 261.72 126.633 263.431C127.393 265.142 127.773 267.079 127.773 269.241C127.773 271.546 127.322 273.59 126.419 275.372C125.54 277.154 124.257 278.675 122.569 279.935C120.906 281.17 118.91 282.109 116.581 282.75C114.252 283.392 111.65 283.713 108.775 283.713C106.161 283.713 103.583 283.38 101.04 282.715C98.4974 282.026 96.1924 280.98 94.125 279.578C92.0814 278.176 90.4417 276.394 89.2061 274.231C87.9941 272.045 87.3882 269.455 87.3882 266.461H99.0083C99.0083 268.029 99.234 269.36 99.6855 270.453C100.137 271.522 100.779 272.39 101.61 273.055C102.466 273.721 103.5 274.196 104.711 274.481C105.923 274.766 107.278 274.909 108.775 274.909C110.51 274.909 111.912 274.671 112.981 274.196C114.074 273.697 114.882 273.02 115.405 272.164C115.928 271.309 116.189 270.358 116.189 269.312ZM156.681 273.697V244.433H167.874V283H157.394L156.681 273.697ZM157.857 265.819L160.923 265.748C160.923 268.338 160.614 270.726 159.996 272.913C159.402 275.099 158.499 277 157.287 278.616C156.099 280.232 154.614 281.491 152.832 282.394C151.073 283.273 149.018 283.713 146.665 283.713C144.764 283.713 143.017 283.451 141.425 282.929C139.857 282.382 138.502 281.539 137.362 280.398C136.221 279.234 135.342 277.748 134.724 275.942C134.106 274.113 133.797 271.926 133.797 269.384V244.433H144.918V269.455C144.918 270.453 145.037 271.309 145.275 272.021C145.536 272.711 145.881 273.281 146.309 273.732C146.76 274.184 147.307 274.517 147.948 274.73C148.614 274.944 149.338 275.051 150.123 275.051C152.095 275.051 153.639 274.647 154.756 273.839C155.897 273.008 156.693 271.903 157.145 270.524C157.62 269.122 157.857 267.554 157.857 265.819ZM195.641 272.271C195.641 271.558 195.415 270.928 194.963 270.382C194.536 269.835 193.751 269.336 192.611 268.885C191.494 268.433 189.914 267.982 187.87 267.53C185.945 267.126 184.151 266.604 182.488 265.962C180.824 265.297 179.375 264.5 178.139 263.574C176.903 262.623 175.941 261.506 175.252 260.223C174.563 258.916 174.218 257.431 174.218 255.768C174.218 254.152 174.563 252.619 175.252 251.169C175.965 249.72 176.987 248.437 178.317 247.32C179.672 246.203 181.312 245.324 183.236 244.682C185.185 244.041 187.395 243.72 189.866 243.72C193.264 243.72 196.199 244.254 198.67 245.324C201.142 246.369 203.043 247.843 204.374 249.744C205.704 251.621 206.37 253.771 206.37 256.195H195.249C195.249 255.197 195.058 254.33 194.678 253.593C194.298 252.857 193.716 252.286 192.932 251.882C192.147 251.455 191.114 251.241 189.831 251.241C188.833 251.241 187.953 251.419 187.193 251.775C186.456 252.108 185.874 252.571 185.446 253.166C185.042 253.76 184.84 254.449 184.84 255.233C184.84 255.779 184.959 256.278 185.197 256.73C185.458 257.158 185.85 257.562 186.373 257.942C186.92 258.298 187.621 258.619 188.476 258.904C189.355 259.189 190.425 259.463 191.684 259.724C194.369 260.223 196.817 260.924 199.027 261.827C201.261 262.73 203.043 263.978 204.374 265.57C205.728 267.162 206.405 269.265 206.405 271.879C206.405 273.59 206.013 275.158 205.229 276.584C204.469 278.01 203.364 279.257 201.914 280.327C200.465 281.396 198.73 282.228 196.71 282.822C194.69 283.416 192.409 283.713 189.866 283.713C186.23 283.713 183.153 283.059 180.634 281.752C178.115 280.445 176.214 278.806 174.931 276.833C173.672 274.837 173.042 272.794 173.042 270.703H183.486C183.533 271.986 183.854 273.031 184.448 273.839C185.066 274.647 185.862 275.241 186.836 275.622C187.811 275.978 188.904 276.156 190.116 276.156C191.328 276.156 192.338 275.99 193.146 275.657C193.953 275.325 194.571 274.873 194.999 274.303C195.427 273.709 195.641 273.031 195.641 272.271ZM212.643 228.25H223.764V273.839L222.624 283H212.643V228.25ZM247.824 263.289V264.037C247.824 266.96 247.515 269.621 246.897 272.021C246.303 274.422 245.389 276.501 244.153 278.259C242.917 279.994 241.361 281.337 239.483 282.287C237.606 283.238 235.396 283.713 232.854 283.713C230.501 283.713 228.481 283.226 226.794 282.251C225.107 281.253 223.693 279.875 222.552 278.117C221.412 276.358 220.485 274.303 219.772 271.95C219.083 269.598 218.548 267.067 218.168 264.358V263.075C218.548 260.366 219.083 257.835 219.772 255.482C220.485 253.13 221.412 251.074 222.552 249.316C223.693 247.557 225.095 246.191 226.758 245.217C228.445 244.219 230.453 243.72 232.782 243.72C235.349 243.72 237.57 244.207 239.448 245.181C241.349 246.155 242.917 247.522 244.153 249.28C245.389 251.015 246.303 253.082 246.897 255.482C247.515 257.859 247.824 260.461 247.824 263.289ZM236.703 264.037V263.289C236.703 261.815 236.596 260.425 236.382 259.118C236.192 257.811 235.848 256.659 235.349 255.661C234.873 254.639 234.196 253.843 233.317 253.272C232.461 252.678 231.356 252.381 230.002 252.381C228.671 252.381 227.542 252.607 226.616 253.059C225.689 253.51 224.94 254.152 224.37 254.983C223.8 255.791 223.384 256.778 223.123 257.942C222.861 259.106 222.719 260.401 222.695 261.827V265.605C222.719 267.507 222.968 269.17 223.443 270.596C223.919 272.021 224.691 273.126 225.76 273.911C226.83 274.671 228.267 275.051 230.073 275.051C231.451 275.051 232.568 274.79 233.424 274.267C234.303 273.721 234.968 272.96 235.42 271.986C235.895 271.012 236.228 269.847 236.418 268.493C236.608 267.138 236.703 265.653 236.703 264.037ZM269.853 275.051C271.041 275.051 272.074 274.826 272.954 274.374C273.833 273.923 274.51 273.293 274.985 272.485C275.484 271.653 275.734 270.655 275.734 269.491H286.213C286.213 272.295 285.489 274.766 284.039 276.905C282.613 279.043 280.688 280.719 278.265 281.931C275.841 283.119 273.108 283.713 270.066 283.713C267.072 283.713 264.458 283.226 262.225 282.251C259.991 281.253 258.125 279.863 256.628 278.081C255.131 276.299 254.003 274.231 253.242 271.879C252.506 269.503 252.137 266.936 252.137 264.18V263.253C252.137 260.52 252.506 257.966 253.242 255.589C254.003 253.213 255.131 251.134 256.628 249.352C258.125 247.569 259.979 246.191 262.189 245.217C264.423 244.219 267.037 243.72 270.031 243.72C273.191 243.72 275.983 244.326 278.407 245.538C280.855 246.75 282.768 248.496 284.146 250.777C285.524 253.035 286.213 255.756 286.213 258.94H275.734C275.734 257.704 275.508 256.599 275.057 255.625C274.629 254.627 273.964 253.843 273.061 253.272C272.181 252.678 271.088 252.381 269.781 252.381C268.427 252.381 267.31 252.678 266.431 253.272C265.575 253.843 264.922 254.639 264.47 255.661C264.019 256.682 263.71 257.847 263.543 259.154C263.377 260.437 263.294 261.803 263.294 263.253V264.18C263.294 265.653 263.377 267.055 263.543 268.386C263.71 269.693 264.019 270.845 264.47 271.843C264.945 272.841 265.611 273.625 266.466 274.196C267.322 274.766 268.451 275.051 269.853 275.051ZM302.895 253.415V283H291.774V244.433H302.218L302.895 253.415ZM314.408 244.147L314.23 254.52C313.755 254.449 313.137 254.389 312.376 254.342C311.616 254.271 310.963 254.235 310.416 254.235C308.99 254.235 307.755 254.413 306.709 254.77C305.687 255.102 304.832 255.601 304.143 256.267C303.477 256.932 302.978 257.764 302.646 258.762C302.313 259.736 302.146 260.865 302.146 262.148L300.043 261.114C300.043 258.572 300.293 256.243 300.792 254.128C301.291 252.013 302.016 250.183 302.966 248.639C303.917 247.07 305.081 245.858 306.459 245.003C307.838 244.147 309.406 243.72 311.165 243.72C311.735 243.72 312.317 243.755 312.911 243.827C313.505 243.898 314.004 244.005 314.408 244.147ZM330.698 244.433V283H319.541V244.433H330.698ZM318.864 234.452C318.864 232.836 319.434 231.517 320.575 230.496C321.715 229.45 323.212 228.927 325.066 228.927C326.919 228.927 328.417 229.45 329.557 230.496C330.722 231.517 331.304 232.836 331.304 234.452C331.304 236.044 330.722 237.363 329.557 238.409C328.417 239.431 326.919 239.941 325.066 239.941C323.212 239.941 321.715 239.431 320.575 238.409C319.434 237.363 318.864 236.044 318.864 234.452ZM338.753 228.25H349.875V273.839L348.734 283H338.753V228.25ZM373.935 263.289V264.037C373.935 266.96 373.626 269.621 373.008 272.021C372.414 274.422 371.499 276.501 370.263 278.259C369.028 279.994 367.471 281.337 365.594 282.287C363.716 283.238 361.507 283.713 358.964 283.713C356.611 283.713 354.591 283.226 352.904 282.251C351.217 281.253 349.803 279.875 348.663 278.117C347.522 276.358 346.595 274.303 345.882 271.95C345.193 269.598 344.659 267.067 344.278 264.358V263.075C344.659 260.366 345.193 257.835 345.882 255.482C346.595 253.13 347.522 251.074 348.663 249.316C349.803 247.557 351.205 246.191 352.869 245.217C354.556 244.219 356.564 243.72 358.893 243.72C361.459 243.72 363.681 244.207 365.558 245.181C367.459 246.155 369.028 247.522 370.263 249.28C371.499 251.015 372.414 253.082 373.008 255.482C373.626 257.859 373.935 260.461 373.935 263.289ZM362.813 264.037V263.289C362.813 261.815 362.707 260.425 362.493 259.118C362.303 257.811 361.958 256.659 361.459 255.661C360.984 254.639 360.306 253.843 359.427 253.272C358.572 252.678 357.467 252.381 356.112 252.381C354.782 252.381 353.653 252.607 352.726 253.059C351.799 253.51 351.051 254.152 350.48 254.983C349.91 255.791 349.494 256.778 349.233 257.942C348.972 259.106 348.829 260.401 348.805 261.827V265.605C348.829 267.507 349.078 269.17 349.554 270.596C350.029 272.021 350.801 273.126 351.871 273.911C352.94 274.671 354.378 275.051 356.184 275.051C357.562 275.051 358.679 274.79 359.534 274.267C360.413 273.721 361.079 272.96 361.53 271.986C362.006 271.012 362.338 269.847 362.528 268.493C362.718 267.138 362.813 265.653 362.813 264.037ZM398.03 283.713C394.965 283.713 392.22 283.226 389.796 282.251C387.373 281.277 385.317 279.935 383.63 278.224C381.966 276.489 380.695 274.493 379.816 272.235C378.937 269.978 378.497 267.566 378.497 265V263.645C378.497 260.77 378.901 258.12 379.709 255.696C380.517 253.272 381.693 251.169 383.238 249.387C384.806 247.581 386.731 246.191 389.012 245.217C391.293 244.219 393.896 243.72 396.818 243.72C399.551 243.72 401.987 244.171 404.125 245.074C406.264 245.953 408.07 247.225 409.543 248.888C411.017 250.528 412.134 252.512 412.894 254.841C413.678 257.146 414.07 259.736 414.07 262.611V267.174H382.988V260.009H403.163V259.154C403.163 257.799 402.914 256.611 402.415 255.589C401.939 254.568 401.226 253.783 400.276 253.237C399.349 252.667 398.173 252.381 396.747 252.381C395.393 252.381 394.264 252.667 393.361 253.237C392.458 253.807 391.733 254.615 391.187 255.661C390.664 256.682 390.284 257.882 390.046 259.261C389.808 260.615 389.689 262.077 389.689 263.645V265C389.689 266.497 389.891 267.863 390.295 269.099C390.699 270.334 391.293 271.392 392.078 272.271C392.862 273.15 393.812 273.839 394.929 274.338C396.046 274.837 397.317 275.087 398.743 275.087C400.502 275.087 402.177 274.754 403.769 274.089C405.361 273.4 406.739 272.33 407.904 270.881L413.108 276.833C412.324 277.974 411.219 279.079 409.793 280.148C408.391 281.194 406.704 282.049 404.731 282.715C402.759 283.38 400.525 283.713 398.03 283.713Z" fill="white"/>
</svg>
