<svg width="500" height="500" viewBox="0 0 500 500" fill="none" xmlns="http://www.w3.org/2000/svg">
<g clip-path="url(#clip0_5_203)">
<mask id="mask0_5_203" style="mask-type:luminance" maskUnits="userSpaceOnUse" x="25" y="25" width="450" height="450">
<path d="M474.745 25H25V474.745H474.745V25Z" fill="white"/>
</mask>
<g mask="url(#mask0_5_203)">
<path d="M379.501 312.9C376.949 329.487 362.532 341.544 345.818 341.544H153.927C137.149 341.544 122.732 329.487 120.244 312.9C117.883 297.526 115.587 276.092 115.396 249.809C115.587 223.526 117.756 202.282 120.244 186.717C122.796 170.13 137.213 158.073 153.927 158.073H345.818C362.596 158.073 377.013 170.13 379.501 186.717C381.861 202.091 384.158 223.526 384.349 249.809C384.158 276.092 381.798 297.526 379.501 312.9ZM250 25C125.73 25 25 125.73 25 250C25 374.27 125.73 475 250 475C374.27 475 475 374.27 475 250C474.809 125.73 374.079 25 250 25Z" fill="#E00303"/>
<path d="M221.548 213.382V286.426L289.552 250L221.548 213.382Z" fill="#E00303"/>
</g>
</g>
<defs>
<clipPath id="clip0_5_203">
<rect width="450" height="450" fill="white" transform="translate(25 25)"/>
</clipPath>
</defs>
</svg>
