<?xml version="1.0" encoding="UTF-8" standalone="no"?>
<svg
   width="1620.5945pt"
   height="589.34467pt"
   viewBox="0 0 1620.5945 589.34467"
   version="1.1"
   id="svg79"
   sodipodi:docname="209084.svg"
   inkscape:version="1.1 (c68e22c387, 2021-05-23)"
   xmlns:inkscape="http://www.inkscape.org/namespaces/inkscape"
   xmlns:sodipodi="http://sodipodi.sourceforge.net/DTD/sodipodi-0.dtd"
   xmlns="http://www.w3.org/2000/svg"
   xmlns:svg="http://www.w3.org/2000/svg">
  <defs
     id="defs83" />
  <sodipodi:namedview
     id="namedview81"
     pagecolor="#ffffff"
     bordercolor="#666666"
     borderopacity="1.0"
     inkscape:pageshadow="2"
     inkscape:pageopacity="0.0"
     inkscape:pagecheckerboard="0"
     inkscape:document-units="pt"
     showgrid="false"
     fit-margin-top="0"
     fit-margin-left="0"
     fit-margin-right="0"
     fit-margin-bottom="0"
     inkscape:zoom="0.36600755"
     inkscape:cx="1055.9891"
     inkscape:cy="580.58912"
     inkscape:window-width="1920"
     inkscape:window-height="1017"
     inkscape:window-x="1912"
     inkscape:window-y="-8"
     inkscape:window-maximized="1"
     inkscape:current-layer="svg79" />
  <g
     id="surface1"
     transform="matrix(4.4114691,0,0,4.4114691,-95.777132,-57.521424)">
    <path
       style="fill:#00708f;fill-opacity:1;fill-rule:nonzero;stroke:none"
       d="m 207.55469,130.66406 h -5.63672 c 0,-0.17969 0,-0.35547 0,-0.35547 0,-0.91406 0,-1.32031 0.71094,-2.02343 0.74218,-0.57032 1.83984,-0.57032 2.73046,-0.57032 0.74219,0 0.81641,0 1.70313,0 v -3.8125 l -3.33203,-0.11328 c -5.86328,0 -7.76172,0.67578 -7.76172,6.875 v 15.64063 h 5.94922 v -11.62891 h 5.63672 v -4.01172"
       id="path2" />
    <path
       style="fill:#00708f;fill-opacity:1;fill-rule:nonzero;stroke:none"
       d="m 366.06641,137.34766 c -0.0742,-7.09375 -1.94141,-6.58594 -9.13282,-6.58594 -5.92187,0 -9.36718,0.0195 -9.36718,6.43359 v 9.10938 h 6.03125 v -8.57813 c -0.0703,-3.41015 1.95312,-3.13672 3.55078,-3.13672 2.41015,-0.0352 3.37109,0.91407 3.39843,2.75782 h 5.51954"
       id="path4" />
    <path
       style="fill:#00708f;fill-opacity:1;fill-rule:nonzero;stroke:none"
       d="m 182.61719,146.30469 h -5.80469 v -22.66406 h 5.80469 v 22.66406"
       id="path6" />
    <path
       style="fill:#00708f;fill-opacity:1;fill-rule:nonzero;stroke:none"
       d="m 55.148438,143.0625 h 0.984375 c 1.347656,0 2.726562,-0.0352 4.042968,-0.22656 1.042969,-0.16797 1.511719,-0.58594 1.582032,-1.59375 0,-1.36328 -1.484375,-1.52344 -2.59375,-1.52344 -1.117188,-0.0352 -2.222657,-0.0742 -3.332032,-0.0742 -1.183593,0 -3.710937,0 -3.710937,1.65625 0,1.59766 1.648437,1.76172 3.027344,1.76172 z m -8.121094,-7.63281 c 0.07031,-3.83203 3.644531,-4.41407 6.914062,-4.48438 2.023438,-0.0937 4.074219,-0.125 6.101563,-0.125 3.972656,0 7.578125,0.65235 7.578125,5.25391 v 10.23047 h -5.863281 v -2.46875 c -1.003907,2.76562 -4.449219,2.79687 -7.007813,2.79687 h -1.078125 c -4.144531,0 -7.316406,-0.29297 -7.316406,-5.1289 0,-3.28516 1.960937,-4.71094 5.230469,-4.83594 1.175781,-0.10938 2.390625,-0.10938 3.5625,-0.10938 h 1.722656 c 1.855469,0 3.710937,0.0742 4.886719,1.625 v -1.64843 c 0,-1.88282 -0.839844,-2.17579 -2.660157,-2.3125 -0.914062,-0.0234 -1.820312,-0.0586 -2.695312,-0.0586 l -1.921875,0.0586 c -0.910156,0 -1.613281,0.19921 -1.648438,1.20703 h -5.804687"
       id="path8" />
    <path
       style="fill:#00708f;fill-opacity:1;fill-rule:nonzero;stroke:none"
       d="m 161.4375,143.0625 h 0.97656 c 1.35156,0 2.73047,-0.0352 4.05078,-0.22656 1.03907,-0.16797 1.51172,-0.58594 1.57813,-1.59375 0,-1.36328 -1.48047,-1.52344 -2.59375,-1.52344 -1.11328,-0.0352 -2.22656,-0.0742 -3.33594,-0.0742 -1.17578,0 -3.70703,0 -3.70703,1.65625 0,1.59766 1.65234,1.76172 3.03125,1.76172 z m -8.12109,-7.63281 c 0.0664,-3.83203 3.64062,-4.41407 6.90625,-4.48438 2.02343,-0.0937 4.07812,-0.125 6.10156,-0.125 3.97265,0 7.58203,0.65235 7.58203,5.25391 v 10.23047 h -5.86328 v -2.46875 c -1.01172,2.76562 -4.44531,2.79687 -7.01172,2.79687 h -1.07813 c -4.14062,0 -7.30859,-0.29297 -7.30859,-5.1289 0,-3.28516 1.95313,-4.71094 5.21875,-4.83594 1.18359,-0.10938 2.39063,-0.10938 3.57422,-0.10938 h 1.71875 c 1.85547,0 3.70703,0.0742 4.88672,1.625 v -1.64843 c 0,-1.88282 -0.83985,-2.17579 -2.66406,-2.3125 -0.91016,-0.0234 -1.8125,-0.0586 -2.69141,-0.0586 l -1.92188,0.0586 c -0.91015,0 -1.61718,0.19921 -1.65234,1.20703 h -5.79687"
       id="path10" />
    <path
       style="fill:#00708f;fill-opacity:1;fill-rule:nonzero;stroke:none"
       d="m 251.35156,143.0625 h 0.97656 c 1.35157,0 2.72657,-0.0352 4.04297,-0.22656 1.04688,-0.16797 1.51563,-0.58594 1.58594,-1.59375 0,-1.36328 -1.48437,-1.52344 -2.59766,-1.52344 -1.11328,-0.0352 -2.22656,-0.0742 -3.33593,-0.0742 -1.17578,0 -3.71094,0 -3.71094,1.65625 0,1.59766 1.65625,1.76172 3.03906,1.76172 z m -8.125,-7.63281 c 0.0664,-3.83203 3.63672,-4.41407 6.91016,-4.48438 2.02344,-0.0937 4.07812,-0.125 6.09765,-0.125 3.97657,0 7.58204,0.65235 7.58204,5.25391 v 10.23047 h -5.85938 v -2.46875 c -1.01562,2.76562 -4.45312,2.79687 -7.01172,2.79687 h -1.08203 c -4.13672,0 -7.30859,-0.29297 -7.30859,-5.1289 0,-3.28516 1.95703,-4.71094 5.22265,-4.83594 1.17578,-0.10938 2.39063,-0.10938 3.57422,-0.10938 h 1.71094 c 1.85937,0 3.71094,0.0742 4.89453,1.625 v -1.64843 c 0,-1.88282 -0.85156,-2.17579 -2.66406,-2.3125 -0.91016,-0.0234 -1.82031,-0.0586 -2.69922,-0.0586 l -1.92188,0.0586 c -0.91015,0 -1.61328,0.19921 -1.64843,1.20703 h -5.79688"
       id="path12" />
    <path
       style="fill:#00708f;fill-opacity:1;fill-rule:nonzero;stroke:none"
       d="m 376.60547,143.0625 h 0.97265 c 1.35157,0 2.73047,-0.0352 4.04688,-0.22656 1.04297,-0.16797 1.51562,-0.58594 1.58203,-1.59375 0,-1.36328 -1.48437,-1.52344 -2.59375,-1.52344 -1.10937,-0.0352 -2.22266,-0.0742 -3.33984,-0.0742 -1.17578,0 -3.70703,0 -3.70703,1.65625 0,1.59766 1.64843,1.76172 3.03906,1.76172 z m -8.125,-7.63281 c 0.0664,-3.83203 3.63281,-4.41407 6.91015,-4.48438 2.01954,-0.0937 4.07813,-0.125 6.09766,-0.125 3.97656,0 7.58203,0.65235 7.58203,5.25391 v 10.23047 h -5.86328 v -2.46875 c -1.01562,2.76562 -4.44922,2.79687 -7.01172,2.79687 h -1.07422 c -4.14843,0 -7.30859,-0.29297 -7.30859,-5.1289 0,-3.28516 1.95312,-4.71094 5.21875,-4.83594 1.17969,-0.10938 2.39844,-0.10938 3.57422,-0.10938 h 1.72265 c 1.84766,0 3.69532,0.0742 4.87891,1.625 v -1.64843 c 0,-1.88282 -0.83984,-2.17579 -2.66016,-2.3125 -0.91015,-0.0234 -1.82031,-0.0586 -2.69531,-0.0586 l -1.92187,0.0586 c -0.91407,0 -1.61719,0.19921 -1.65235,1.20703 h -5.79687"
       id="path14" />
    <path
       style="fill:#00708f;fill-opacity:1;fill-rule:nonzero;stroke:none"
       d="m 335.40234,134.19922 h -2.1914 c -1.71485,0 -3.94141,0 -3.94141,2.24219 0,0.11718 0,0.28906 0.0312,0.41406 h 9.67578 c 0,-2.36328 -1.35156,-2.65625 -3.57422,-2.65625 z m 9.33203,7.14453 c -0.0976,5.09375 -4.51562,5.28906 -8.7539,5.28906 -1.89063,0 -3.75,-0.0664 -5.62891,-0.19531 -5.73828,-0.39453 -6.98437,-2.99219 -6.98437,-8.15234 0,-4.9336 1.69531,-7.14454 6.94531,-7.3711 1.85156,-0.0937 3.67187,-0.0937 5.52344,-0.0937 2.39843,0 5.26172,0.0937 7.01172,1.46094 2.26171,1.85156 1.71484,4.96484 1.88671,7.50391 h -15.43359 c 0,2.30078 0.70703,3.21093 3.16797,3.24218 1.10937,0.0352 2.1875,0.0664 3.30469,0.0664 1.11328,0 2.46093,-0.0977 2.89843,-0.65234 0.23047,-0.32032 0.23047,-0.75 0.26563,-1.09766 h 5.79687"
       id="path16" />
    <path
       style="fill:#00708f;fill-opacity:1;fill-rule:nonzero;stroke:none"
       d="m 92.042969,140.10156 c 0,1.88672 -0.171875,3.60938 -1.820313,4.91016 -2.023437,1.58984 -6.4375,1.62109 -8.964843,1.62109 -6.675782,0 -11.117188,-0.29297 -11.117188,-8.08984 0,-4.83594 1.546875,-7.04688 6.667969,-7.4961 1.851562,-0.16406 3.675781,-0.22656 5.523437,-0.22656 5.292969,0 9.574219,0.0937 9.574219,6.26563 h -5.863281 c -0.101563,-0.58203 -0.203125,-1.12891 -0.707031,-1.52735 -0.742188,-0.51562 -2.261719,-0.54687 -3.371094,-0.54687 h -0.941406 c -1.28125,0 -3.101563,0.0312 -4.117188,0.77344 -0.839844,0.65625 -0.871094,1.94921 -0.871094,2.88671 0,3.73829 2.019532,3.76954 5.324219,3.76954 1.042969,0 3.605469,-0.0586 4.308594,-0.84375 0.410156,-0.41797 0.441406,-0.94532 0.441406,-1.4961 h 5.933594"
       id="path18" />
    <path
       style="fill:#00708f;fill-opacity:1;fill-rule:nonzero;stroke:none"
       d="m 109.52734,141.82812 c 0.84375,0.61329 2.96094,0.64454 4.1836,0.64454 h 0.63672 c 1.24609,0 3.36718,-0.0312 4.24609,-0.64454 0.76953,-0.55468 0.83984,-1.66015 0.83984,-2.60156 v -1.13281 c 0,-0.84766 -0.0703,-1.8125 -0.80468,-2.33203 -1.14844,-0.75 -3.3711,-0.75 -4.72266,-0.75 -1.21094,0 -3.4375,0.0586 -4.37891,0.80469 -0.84375,0.6875 -0.84375,2.04687 -0.84375,2.99609 0,0.87109 0.10547,2.42969 0.84375,3.01562 z m -3.5039,-10.23046 c 2.05469,-0.7461 5.32422,-0.7461 7.58203,-0.7461 2.01953,0 4.07812,0.0312 6.09766,0.23047 4.34765,0.48047 5.63281,2.46484 5.63281,6.55469 v 0.64844 c 0,5.45312 -0.0703,7.60546 -6.94922,8.21484 -2.11719,0.13281 -4.27734,0.13281 -6.40234,0.13281 -5.98829,0 -9.19532,-0.51953 -9.19532,-7.14453 v -0.90234 c 0,-2.80078 0.0664,-5.85157 3.23438,-6.98828"
       id="path20" />
    <path
       style="fill:#00708f;fill-opacity:1;fill-rule:nonzero;stroke:none"
       d="m 38.355469,146.30469 v -4.47657 c 0,0 0,-1.66015 0,-2.60156 v -1.13281 c 0,-0.84766 -0.06641,-1.8125 -0.808594,-2.33203 -1.144531,-0.75 -3.367187,-0.75 -4.714844,-0.75 -1.214843,0 -3.4375,0.0586 -4.378906,0.80469 -0.84375,0.6875 -0.84375,2.04687 -0.84375,2.99609 0,0.87109 0,7.49219 0,7.49219 h -5.898437 v -7.71875 c 0,-2.80078 0.06641,-5.85157 3.234375,-6.98828 2.058593,-0.7461 5.324218,-0.7461 7.582031,-0.7461 2.023437,0 4.078125,0.0312 6.105469,0.23047 4.339843,0.48047 5.621093,2.46484 5.621093,6.55469 v 8.66797 h -5.898437"
       id="path22" />
    <path
       style="fill:#00708f;fill-opacity:1;fill-rule:nonzero;stroke:none"
       d="m 144.64062,146.30469 v -4.47657 c 0,0 0,-1.66015 0,-2.60156 v -1.13281 c 0,-0.84766 -0.0625,-1.8125 -0.80859,-2.33203 -1.14453,-0.75 -3.36719,-0.75 -4.71875,-0.75 -1.21094,0 -3.4375,0.0586 -4.37891,0.80469 -0.84375,0.6875 -0.84375,2.04687 -0.84375,2.99609 0,0.87109 0,7.49219 0,7.49219 h -5.89843 v -7.71875 c 0,-2.80078 0.0703,-5.85157 3.23828,-6.98828 2.05469,-0.7461 5.32031,-0.7461 7.57812,-0.7461 2.02735,0 4.08203,0.0312 6.10157,0.23047 4.34765,0.48047 5.6289,2.46484 5.6289,6.55469 v 8.66797 h -5.89844"
       id="path24" />
    <path
       style="fill:#00708f;fill-opacity:1;fill-rule:nonzero;stroke:none"
       d="m 234.03516,146.30469 v -4.47657 c 0,0 0,-1.66015 0,-2.60156 v -1.13281 c 0,-0.84766 -0.0703,-1.8125 -0.8125,-2.33203 -1.14844,-0.75 -3.36719,-0.75 -4.71485,-0.75 -1.21484,0 -3.4375,0.0586 -4.38281,0.80469 -0.84766,0.6875 -0.84766,2.04687 -0.84766,2.99609 0,0.87109 0,7.49219 0,7.49219 h -5.89453 v -7.71875 c 0,-2.80078 0.0703,-5.85157 3.24219,-6.98828 2.04687,-0.7461 5.31641,-0.7461 7.57812,-0.7461 2.02344,0 4.07813,0.0312 6.10157,0.23047 4.33984,0.48047 5.62109,2.46484 5.62109,6.55469 v 8.66797 h -5.89062"
       id="path26" />
    <path
       style="fill:#00708f;fill-opacity:1;fill-rule:nonzero;stroke:none"
       d="m 283.14453,146.30469 v -4.47657 c 0,0 0,-1.66015 0,-2.60156 v -1.13281 c 0,-0.84766 -0.0703,-1.8125 -0.80469,-2.33203 -1.14843,-0.75 -3.37109,-0.75 -4.71875,-0.75 -1.21093,0 -3.43359,0.0586 -4.38281,0.80469 -0.83984,0.6875 -0.83984,2.04687 -0.83984,2.99609 0,0.87109 0,7.49219 0,7.49219 H 266.5 v -7.71875 c 0,-2.80078 0.0664,-5.85157 3.23828,-6.98828 2.05078,-0.7461 5.32031,-0.7461 7.58203,-0.7461 2.01953,0 4.07422,0.0312 6.09375,0.23047 4.34766,0.48047 5.63281,2.46484 5.63281,6.55469 v 8.66797 h -5.90234"
       id="path28" />
    <path
       style="fill:#00708f;fill-opacity:1;fill-rule:nonzero;stroke:none"
       d="m 100.18359,146.30469 h -5.828121 v -15.16407 h 5.828121 v 15.16407"
       id="path30" />
    <path
       style="fill:#00708f;fill-opacity:1;fill-rule:nonzero;stroke:none"
       d="m 215.30078,146.30469 h -5.83203 v -15.16407 h 5.83203 v 15.16407"
       id="path32" />
    <path
       style="fill:#00708f;fill-opacity:1;fill-rule:nonzero;stroke:none"
       d="m 321.0625,146.30469 h -5.82422 v -15.16407 h 5.82422 v 15.16407"
       id="path34" />
    <path
       style="fill:#00708f;fill-opacity:1;fill-rule:nonzero;stroke:none"
       d="m 312.92187,140.10156 c 0,1.88672 -0.16796,3.60938 -1.8164,4.91016 -2.02735,1.58984 -6.4375,1.62109 -8.96485,1.62109 -6.66796,0 -11.11718,-0.29297 -11.11718,-8.08984 0,-4.83594 1.53906,-7.04688 6.66406,-7.4961 1.85547,-0.16406 3.67578,-0.22656 5.53125,-0.22656 5.28906,0 9.57031,0.0937 9.57031,6.26563 h -5.85937 c -0.10938,-0.58203 -0.20703,-1.12891 -0.70703,-1.52735 -0.7461,-0.51562 -2.26172,-0.54687 -3.375,-0.54687 h -0.94922 c -1.27344,0 -3.10157,0.0312 -4.10938,0.77344 -0.84375,0.65625 -0.87109,1.94921 -0.87109,2.88671 0,3.73829 2.01953,3.76954 5.32031,3.76954 1.04297,0 3.60547,-0.0586 4.30859,-0.84375 0.40625,-0.41797 0.44532,-0.94532 0.44532,-1.4961 h 5.92968"
       id="path36" />
    <path
       style="fill:#00708f;fill-opacity:1;fill-rule:nonzero;stroke:none"
       d="m 257.44531,55.90625 -19.51953,0.0078 c 0,0 0,-4.109375 0,-9.464844 0,-5.359375 4.37109,-9.710938 9.76172,-9.710938 5.38281,0 9.75781,4.351563 9.75781,9.710938 0,2.816406 0,9.457031 0,9.457031 z m 0,21.21875 h -26.05859 v 17.503906 h -22.4375 V 77.125 h -26.11328 c 0,0 0,-25.320312 0,-30.675781 0,-5.359375 4.375,-9.710938 9.76953,-9.710938 5.38672,0 9.75781,4.351563 9.75781,9.710938 0,2.816406 0,15.71875 0,15.71875 h 6.58594 c 0,0 0,-3.878906 0,-10.34375 0,-13.5 10.93359,-24.441406 24.42969,-24.441406 4.85156,0 9.3789,1.421875 13.18359,3.871093 -8.43359,0.304688 -15.17578,7.246094 -15.17578,15.753907 0,8.703125 0,15.160156 0,15.160156 l 26.05859,0.03516 z M 175.78125,47.007813 c 0,8.703125 -0.004,30.117187 -0.004,30.117187 h -22.4375 c 0,0 0,-18.835937 0,-25.300781 0,-13.5 10.92969,-24.441406 24.42578,-24.441406 4.85547,0 9.38282,1.421875 13.1836,3.871093 -8.4336,0.304688 -15.16797,7.246094 -15.16797,15.753907 z m 29.61328,-33.96875 c -39.9375,0 -72.50781,20.492187 -72.50781,45.917968 0,25.558594 32.57031,46.187499 72.50781,46.187499 39.92969,0 72.50391,-20.628905 72.50391,-46.187499 0,-25.425781 -32.57422,-45.917968 -72.50391,-45.917968"
       id="path40" />
    <path
       style="fill:#00708f;fill-opacity:1;fill-rule:nonzero;stroke:none"
       d="m 95.035156,174.21484 c 1.628907,0 3.257813,-0.55859 3.257813,-2.95312 0,-2.33594 -1.652344,-2.98438 -3.386719,-2.98438 h -2.304687 v 5.9375 z m -0.652343,-7.5664 c 1.457031,0 3.300781,-0.3086 3.300781,-3.13282 0,-2.15625 -1.292969,-2.47265 -2.777344,-2.47265 h -2.304687 v 5.60547 z m 0.578125,-7.29688 c 1.878906,0 4.988281,0.19531 4.988281,3.94141 0,2.54297 -1.65625,3.53125 -2.488281,3.9414 1.28125,0.35938 3.089842,1.15625 3.089842,4.10157 0,2.00781 -1.05078,3.14453 -1.652342,3.65625 -0.980469,0.79297 -2.386719,0.92187 -4.394532,0.92187 H 90.84375 c -0.199219,0 -0.304687,-0.10547 -0.304687,-0.29297 v -15.97656 c 0,-0.19141 0.105468,-0.29297 0.304687,-0.29297 h 4.117188"
       id="path42" />
    <path
       style="fill:#00708f;fill-opacity:1;fill-rule:nonzero;stroke:none"
       d="m 111.58594,170.12891 c -1.10156,0.0273 -4.69141,0.0273 -4.69141,2.5625 0,0.96484 0.55469,2.05859 1.83594,2.05859 1.30469,0 2.45703,-1.16016 2.85547,-1.5 z m 1.91015,1.96093 c 0,1.52344 0.0703,1.74219 0.30079,2.41407 0.0937,0.28906 0.44921,0.7539 0.44921,0.89843 0,0.0937 -0.12109,0.14063 -0.22265,0.1836 l -0.98438,0.58984 c -0.10156,0.0469 -0.14453,0.0742 -0.1914,0.0742 -0.38282,0 -0.83203,-1.28516 -0.96094,-1.62109 -0.30078,0.26953 -1.53125,1.62109 -3.61719,1.62109 -1.97656,0 -3.2539,-1.25781 -3.2539,-3.41406 0,-4.08203 5.01953,-4.14844 6.57031,-4.20313 v -0.86719 c 0,-1.41015 -0.44922,-2.18359 -2.23047,-2.18359 -1.68359,0 -2.83203,0.77344 -3.0625,0.77344 -0.0742,0 -0.14844,-0.0391 -0.16797,-0.10938 l -0.32812,-0.85156 c -0.0586,-0.12109 -0.082,-0.19141 -0.082,-0.3125 0,-0.41406 2.3086,-1.11719 3.91797,-1.11719 2.88672,0 3.86328,1.35938 3.86328,3.39063 v 4.73437"
       id="path44" />
    <path
       style="fill:#00708f;fill-opacity:1;fill-rule:nonzero;stroke:none"
       d="m 128.19141,175.62109 c 0,0.1875 -0.10157,0.29297 -0.30078,0.29297 h -1.30469 c -0.19922,0 -0.30078,-0.10547 -0.30078,-0.29297 v -8.07422 c 0,-1.04296 -0.27344,-1.96484 -1.63672,-1.96484 -1.61719,0 -2.67969,0.95313 -3.30469,1.48047 v 8.55859 c 0,0.1875 -0.10156,0.29297 -0.30078,0.29297 h -1.30469 c -0.19922,0 -0.30469,-0.10547 -0.30469,-0.29297 v -8.33984 c 0,-0.80078 0,-1.06641 -0.0977,-1.42578 -0.19922,-0.72656 -0.40235,-0.89063 -0.40235,-1.01563 0,-0.0508 0.0273,-0.0937 0.12891,-0.17187 l 1.125,-0.60156 c 0.0547,-0.0273 0.12891,-0.10157 0.20313,-0.10157 0.45312,0 0.75,1.45313 0.78125,1.64453 0.82421,-0.6289 2.125,-1.64453 4.03515,-1.64453 2.78125,0 2.98438,1.89063 2.98438,3.62891 v 8.02734"
       id="path46" />
    <path
       style="fill:#00708f;fill-opacity:1;fill-rule:nonzero;stroke:none"
       d="m 142.03516,174.79297 c 0.0273,0.0781 0.0781,0.12109 0.0781,0.19922 0,0.26562 -2.10156,1.25781 -3.96484,1.25781 -2.98047,0 -4.71485,-2.25781 -4.71485,-5.77734 0,-4.04688 2.00391,-6.50782 5.08594,-6.50782 1.68359,0 3.61719,1.14453 3.61719,1.50391 0,0.0742 -0.0508,0.11328 -0.0742,0.1875 l -0.58203,1.02344 c -0.043,0.0742 -0.0742,0.14453 -0.14844,0.14453 -0.0977,0 -1.17578,-1.24219 -2.65625,-1.24219 -2.45703,0 -3.18359,1.77344 -3.18359,4.52734 0,2.19922 0.44922,4.51954 2.88281,4.51954 1.63672,0 2.93359,-0.99219 3.08203,-0.99219 0.0781,0 0.0977,0.0703 0.15234,0.14062 l 0.42579,1.01563"
       id="path48" />
    <path
       style="fill:#00708f;fill-opacity:1;fill-rule:nonzero;stroke:none"
       d="m 152.24609,170.12891 c -1.10547,0.0273 -4.6875,0.0273 -4.6875,2.5625 0,0.96484 0.54688,2.05859 1.82422,2.05859 1.30469,0 2.45703,-1.16016 2.86328,-1.5 z m 1.90235,1.96093 c 0,1.52344 0.0742,1.74219 0.30078,2.41407 0.10156,0.28906 0.45312,0.7539 0.45312,0.89843 0,0.0937 -0.12109,0.14063 -0.23047,0.1836 l -0.97656,0.58984 c -0.0977,0.0469 -0.14844,0.0742 -0.19922,0.0742 -0.375,0 -0.82031,-1.28516 -0.94922,-1.62109 -0.30078,0.26953 -1.53515,1.62109 -3.61328,1.62109 -1.98047,0 -3.25781,-1.25781 -3.25781,-3.41406 0,-4.08203 5.01172,-4.14844 6.57031,-4.20313 v -0.86719 c 0,-1.41015 -0.45312,-2.18359 -2.23437,-2.18359 -1.67969,0 -2.83594,0.77344 -3.0586,0.77344 -0.0742,0 -0.14843,-0.0391 -0.17968,-0.10938 l -0.32422,-0.85156 c -0.0508,-0.12109 -0.0742,-0.19141 -0.0742,-0.3125 0,-0.41406 2.30859,-1.11719 3.91406,-1.11719 2.88281,0 3.85938,1.35938 3.85938,3.39063 v 4.73437"
       id="path50" />
    <path
       style="fill:#00708f;fill-opacity:1;fill-rule:nonzero;stroke:none"
       d="m 175.67187,166.39062 c -0.80468,-0.41406 -1.60156,-0.80859 -2.85937,-0.80859 -2.16016,0 -2.35547,2.375 -2.35547,4.71484 0,2.03516 0.17188,4.33204 2.20313,4.33204 1.30859,0 2.40625,-1.06641 3.01171,-1.42579 z m 1.90235,5.69922 c 0,1.08985 0,1.8125 0.27734,2.41407 0.125,0.28906 0.45313,0.7539 0.45313,0.89843 0,0.0937 -0.125,0.14063 -0.22266,0.1836 l -0.98437,0.58984 c -0.0977,0.0469 -0.14454,0.0742 -0.19532,0.0742 -0.35156,0 -0.80468,-1.04297 -0.90625,-1.42578 -0.60156,0.40625 -1.82812,1.42578 -3.68359,1.42578 -2.6875,0 -3.91016,-2.90625 -3.91016,-5.90234 0,-3.48047 1.27344,-6.38282 4.1836,-6.38282 1.55859,0 2.40625,0.41797 3.08593,0.82422 v -5.74609 c 0,-0.17188 0.0742,-0.26563 0.17579,-0.28906 l 1.22656,-0.29297 c 0.20312,-0.0508 0.125,-0.0312 0.30078,-0.0508 0.19922,0 0.19922,0.19531 0.19922,0.3125 v 13.36718"
       id="path52" />
    <path
       style="fill:#00708f;fill-opacity:1;fill-rule:nonzero;stroke:none"
       d="m 189.96484,169 c 0,-1.25781 -0.42968,-3.53125 -2.60547,-3.53125 -2.30468,0 -2.80859,2.32031 -2.80859,3.53125 z m 1.70703,5.79297 c 0.0234,0.0781 0.0742,0.12109 0.0742,0.19922 0,0.26562 -2.10547,1.25781 -3.96484,1.25781 -3.33203,-0.0273 -5.28516,-2.47266 -5.28516,-6.14063 0,-3.55468 1.84766,-6.14453 4.96875,-6.14453 4.1836,0 4.5625,3.92188 4.5625,5.9961 0,0.33593 0,0.53906 -0.28125,0.53906 h -7.19531 c 0,1.46875 0.59766,4.12891 3.46484,4.12891 1.625,0 2.92579,-0.99219 3.07813,-0.99219 0.0703,0 0.0977,0.0703 0.14844,0.14062 l 0.42968,1.01563"
       id="path54" />
    <path
       style="fill:#00708f;fill-opacity:1;fill-rule:nonzero;stroke:none"
       d="m 210.08203,174.21484 c 3.58594,0 4.33594,-2.69922 4.33594,-6.83984 0,-5.29297 -1.57813,-6.33203 -4.50781,-6.33203 h -1.38282 v 13.17187 z m -0.15625,-14.86328 c 3.49609,0 6.75,0.79297 6.75,8.125 0,5.75 -1.90625,8.4375 -7.02344,8.4375 h -2.8789 c -0.20703,0 -0.30469,-0.10547 -0.30469,-0.29297 v -15.97656 c 0,-0.19141 0.0977,-0.29297 0.30469,-0.29297 h 3.15234"
       id="path56" />
    <path
       style="fill:#00708f;fill-opacity:1;fill-rule:nonzero;stroke:none"
       d="m 228.28906,169 c 0,-1.25781 -0.42578,-3.53125 -2.60156,-3.53125 -2.30859,0 -2.8125,2.32031 -2.8125,3.53125 z m 1.70313,5.79297 c 0.0312,0.0781 0.0781,0.12109 0.0781,0.19922 0,0.26562 -2.10156,1.25781 -3.96484,1.25781 -3.33594,-0.0273 -5.28906,-2.47266 -5.28906,-6.14063 0,-3.55468 1.85156,-6.14453 4.96093,-6.14453 4.1875,0 4.57032,3.92188 4.57032,5.9961 0,0.33593 0,0.53906 -0.27735,0.53906 H 222.875 c 0,1.46875 0.59766,4.12891 3.46484,4.12891 1.62891,0 2.92969,-0.99219 3.07813,-0.99219 0.0742,0 0.0977,0.0703 0.14844,0.14062 l 0.42578,1.01563"
       id="path58" />
    <path
       style="fill:#00708f;fill-opacity:1;fill-rule:nonzero;stroke:none"
       d="m 240.98047,165.89844 c -0.0977,0.19922 -0.14844,0.29687 -0.29688,0.29687 -0.17578,0 -1.23437,-0.65234 -2.53906,-0.65234 -1,0 -1.85547,0.48437 -1.85547,1.59375 0,2.65625 5.57031,1.90625 5.57031,5.67969 0,2.27343 -1.85937,3.43359 -4.01171,3.43359 -1.20704,0 -3.8086,-0.67969 -3.8086,-1.16016 0,-0.125 0.0469,-0.1914 0.0977,-0.29687 l 0.35156,-0.7461 c 0.0742,-0.16796 0.14453,-0.21484 0.22266,-0.21484 0.23047,0 1.52734,0.83984 3.23828,0.83984 1.07031,0 2.0039,-0.57421 2.0039,-1.73437 0,-2.51172 -5.5664,-1.96484 -5.5664,-5.60547 0,-1.96094 1.57812,-3.36719 3.78906,-3.36719 0.84375,0 2.30078,0.39063 2.95703,0.72657 0.19922,0.0977 0.27735,0.19921 0.27735,0.3164 0,0.0742 -0.0781,0.14453 -0.0977,0.23828 l -0.33203,0.65235"
       id="path60" />
    <path
       style="fill:#00708f;fill-opacity:1;fill-rule:nonzero;stroke:none"
       d="m 252.41406,170.12891 c -1.09765,0.0273 -4.68359,0.0273 -4.68359,2.5625 0,0.96484 0.55078,2.05859 1.82812,2.05859 1.3086,0 2.45703,-1.16016 2.85547,-1.5 z m 1.91406,1.96093 c 0,1.52344 0.0703,1.74219 0.30079,2.41407 0.0937,0.28906 0.44531,0.7539 0.44531,0.89843 0,0.0937 -0.125,0.14063 -0.22266,0.1836 l -0.98047,0.58984 c -0.0977,0.0469 -0.14843,0.0742 -0.19531,0.0742 -0.375,0 -0.83203,-1.28516 -0.95312,-1.62109 -0.3086,0.26953 -1.53125,1.62109 -3.61719,1.62109 -1.98438,0 -3.26172,-1.25781 -3.26172,-3.41406 0,-4.08203 5.02344,-4.14844 6.57031,-4.20313 v -0.86719 c 0,-1.41015 -0.44922,-2.18359 -2.22656,-2.18359 -1.67969,0 -2.84375,0.77344 -3.06641,0.77344 -0.0703,0 -0.14453,-0.0391 -0.17578,-0.10938 l -0.3164,-0.85156 c -0.0547,-0.12109 -0.0742,-0.19141 -0.0742,-0.3125 0,-0.41406 2.30859,-1.11719 3.90625,-1.11719 2.88281,0 3.86718,1.35938 3.86718,3.39063 v 4.73437"
       id="path62" />
    <path
       style="fill:#00708f;fill-opacity:1;fill-rule:nonzero;stroke:none"
       d="m 262.125,175.62109 c 0,0.1875 -0.0937,0.29297 -0.30078,0.29297 h -1.30469 c -0.20312,0 -0.30078,-0.10547 -0.30078,-0.29297 v -8.28906 c 0,-0.43359 -0.0781,-1.23437 -0.42188,-1.83984 -0.20312,-0.33985 -0.27734,-0.52735 -0.27734,-0.60157 0.0195,-0.14453 0.125,-0.22265 0.17188,-0.24218 l 0.92578,-0.55469 c 0.10156,-0.0742 0.20312,-0.12891 0.2539,-0.12891 0.44922,0 0.87891,1.50391 0.98047,2.02735 0.65235,-0.66797 1.55078,-2.02735 3.00391,-2.02735 0.57812,0 1.23437,0.19922 1.23437,0.41797 0,0.0469 -0.0547,0.11328 -0.0742,0.1875 l -0.55468,1.23438 c -0.0274,0.0508 -0.0508,0.17187 -0.14844,0.17187 -0.125,0 -0.35156,-0.21875 -0.83203,-0.21875 -0.8711,0 -1.75391,1.25391 -2.35547,1.88672 v 7.97656"
       id="path64" />
    <path
       style="fill:#00708f;fill-opacity:1;fill-rule:nonzero;stroke:none"
       d="m 271.80469,175.62109 c 0,0.1875 -0.0977,0.29297 -0.29688,0.29297 h -1.30469 c -0.19921,0 -0.30859,-0.10547 -0.30859,-0.29297 v -8.28906 c 0,-0.43359 -0.0703,-1.23437 -0.42187,-1.83984 -0.19922,-0.33985 -0.27344,-0.52735 -0.27344,-0.60157 0.0273,-0.14453 0.11719,-0.22265 0.17578,-0.24218 l 0.93359,-0.55469 c 0.0937,-0.0742 0.19141,-0.12891 0.24219,-0.12891 0.44922,0 0.87891,1.50391 0.98047,2.02735 0.65625,-0.66797 1.55469,-2.02735 3.01172,-2.02735 0.57031,0 1.22656,0.19922 1.22656,0.41797 0,0.0469 -0.0469,0.11328 -0.0742,0.1875 l -0.55078,1.23438 c -0.0312,0.0508 -0.0547,0.17187 -0.15625,0.17187 -0.125,0 -0.34766,-0.21875 -0.82422,-0.21875 -0.875,0 -1.7539,1.25391 -2.35937,1.88672 v 7.97656"
       id="path66" />
    <path
       style="fill:#00708f;fill-opacity:1;fill-rule:nonzero;stroke:none"
       d="m 286.65234,170.00781 c 0,-2.36328 -0.67187,-4.53906 -2.92968,-4.53906 -2.25782,0 -2.9375,2.07812 -2.9375,4.46875 0,2.75391 0.65234,4.8125 2.96093,4.8125 2.23438,0 2.90625,-1.96094 2.90625,-4.74219 z m -3.07812,6.24219 c -3.39063,0 -4.84375,-2.63672 -4.84375,-6.09375 0,-3.33203 1.45312,-6.19141 5.08984,-6.19141 3.4375,0 4.89063,2.66016 4.89063,6.07422 0,3.37891 -1.48047,6.21094 -5.13672,6.21094"
       id="path68" />
    <path
       style="fill:#00708f;fill-opacity:1;fill-rule:nonzero;stroke:none"
       d="m 298.44531,175.47656 c 0.0274,0.043 0.0469,0.10938 0.0469,0.16797 0,0.26953 -1.20313,0.60547 -2.13282,0.60547 -1.23046,0 -2.05078,-0.48438 -2.34765,-1.16016 -0.35938,-0.80468 -0.35938,-2.66015 -0.35938,-3.50781 v -12.53906 c 0,-0.17188 0.0781,-0.26563 0.17578,-0.28906 l 1.25,-0.29297 c 0.20704,-0.0508 0.12891,-0.0312 0.30469,-0.0508 0.17578,0 0.17578,0.19531 0.17578,0.3125 V 171.625 c 0,0.75391 0.0234,1.98828 0.0781,2.27734 0.0508,0.26172 0.26953,0.84766 1.0039,0.84766 0.64844,0 1.125,-0.32031 1.29688,-0.32031 0.15625,0 0.15625,0.0742 0.17969,0.14843 l 0.32812,0.89844"
       id="path70" />
    <path
       style="fill:#00708f;fill-opacity:1;fill-rule:nonzero;stroke:none"
       d="m 306.71875,175.47656 c 0.0234,0.043 0.0508,0.10938 0.0508,0.16797 0,0.26953 -1.20312,0.60547 -2.12891,0.60547 -1.23046,0 -2.0625,-0.48438 -2.36328,-1.16016 -0.35547,-0.80468 -0.35547,-2.66015 -0.35547,-3.50781 v -12.53906 c 0,-0.17188 0.0859,-0.26563 0.17969,-0.28906 l 1.25781,-0.29297 c 0.19922,-0.0508 0.125,-0.0312 0.30079,-0.0508 0.17968,0 0.17968,0.19531 0.17968,0.3125 V 171.625 c 0,0.75391 0.0195,1.98828 0.0703,2.27734 0.0508,0.26172 0.27734,0.84766 0.99609,0.84766 0.66016,0 1.14062,-0.32031 1.31641,-0.32031 0.14843,0 0.14843,0.0742 0.17187,0.14843 l 0.32422,0.89844"
       id="path72" />
    <path
       style="fill:#00708f;fill-opacity:1;fill-rule:nonzero;stroke:none"
       d="m 317.53125,170.00781 c 0,-2.36328 -0.67578,-4.53906 -2.94141,-4.53906 -2.25,0 -2.92968,2.07812 -2.92968,4.46875 0,2.75391 0.65234,4.8125 2.95703,4.8125 2.23828,0 2.91406,-1.96094 2.91406,-4.74219 z m -3.08984,6.24219 c -3.37891,0 -4.83594,-2.63672 -4.83594,-6.09375 0,-3.33203 1.45703,-6.19141 5.09375,-6.19141 3.4375,0 4.89062,2.66016 4.89062,6.07422 0,3.37891 -1.48437,6.21094 -5.14843,6.21094"
       id="path74" />
  </g>
</svg>
